<?xml version="1.0" encoding="utf-8"?>
<svg xmlns="http://www.w3.org/2000/svg" id="svgRoot" viewBox="0 0 256 223.58803" version="1.1" width="256" height="223.58803">
  <style type="text/css" id="style5">

.ps01 { stroke:#FFFFFF;fill:none; }
.ps00 { stroke:none;fill:#201b6b;fill-rule:evenodd; }
.ps10 { stroke-miterlimit:4; }
.ps11 { stroke-width:1.182;stroke-miterlimit:4; }
.ps12 { stroke-width:1;stroke-miterlimit:10; }

</style>
  <g transform="matrix(8.3819003,0,0,-8.3819003,-1592.2895,4670.1602)" id="g7">
    <g id="q1" class="ps10" style="stroke-miterlimit:4">
      <g id="xfrm2" transform="translate(50.8286,35.751)">
        <path d="m 169.09,512.81 -14.76,8.02 -14.6,-8.02 29.36,0 z" class="ps00" id="path11" style="fill-rule: evenodd; paint-order: stroke; stroke: rgb(0, 0, 0); fill: rgb(195, 203, 255);"/>
      </g>
    </g>
    <g id="q3" class="ps11" style="stroke-width:1.18200004;stroke-miterlimit:4">
      <g id="xfrm4" transform="translate(50.8286,35.751)">
        <path d="m 169.09,512.81 -14.76,8.02 -14.6,-8.02 29.36,0 z" class="ps01" id="path15" style="paint-order: stroke; stroke: rgb(0, 0, 0); fill: rgb(195, 203, 255);"/>
      </g>
    </g>
    <g id="q5" class="ps11" style="stroke-width:1.18200004;stroke-miterlimit:4">
      <g id="xfrm6" transform="translate(30.6543,20.0879)">
        <path d="m 169.09,512.81 -0.28,0.02 -0.28,0.05 -0.14,0.03 -0.13,0.04 -0.13,0.04 -0.12,0.06 -0.11,0.06 -0.11,0.08 -0.1,0.08 -0.09,0.1 -0.09,0.11 -0.07,0.13 -0.04,0.09 -0.04,0.1 -0.02,0.1 -0.02,0.11 -0.03,9.42 0.01,0.38 0.02,0.35 0.02,0.16 0.03,0.14 0.03,0.12 0.05,0.1 0.07,0.11 0.08,0.1 0.09,0.1 0.11,0.08 0.11,0.07 0.12,0.06 0.13,0.06 0.13,0.04 0.13,0.04 0.14,0.03 0.28,0.05 0.27,0.04 0.26,0.02 0,1.96 -8.74,0 0,-1.94 0.01,-0.01 0.02,-0.02 0.08,-0.01 0.15,-0.02 0.49,-0.09 0.25,-0.05 0.23,-0.07 0.12,-0.05 0.1,-0.05 0.11,-0.06 0.1,-0.08 0.08,-0.08 0.08,-0.09 0.07,-0.11 0.05,-0.13 0.03,-0.08 0.03,-0.09 0.03,-0.2 0.01,-0.21 0,-0.21 0,-9.51 -0.01,-0.25 -0.02,-0.12 -0.03,-0.11 -0.04,-0.13 -0.06,-0.12 -0.07,-0.11 -0.09,-0.11 -0.09,-0.09 -0.11,-0.08 -0.1,-0.08 -0.11,-0.06 -0.3,-0.12 -0.25,-0.02 -0.16,-0.02 -0.2,-0.03 -0.23,-0.02 -0.17,0 0,-0.03 -0.02,0 -0.01,-0.02 0,-0.04 0,-1.72 8.77,0 0,1.81 -0.28,0 z" class="ps00" id="path19" style="fill-rule: evenodd; paint-order: stroke; stroke: rgb(0, 0, 0); fill: rgb(195, 203, 255);"/>
      </g>
    </g>
    <g id="q7" class="ps11" style="stroke-width:1.18200004;stroke-miterlimit:4">
      <g id="xfrm8" transform="translate(30.6543,20.0879)">
        <path d="m 169.09,512.81 -0.28,0.02 -0.28,0.05 -0.14,0.03 -0.13,0.04 -0.13,0.04 -0.12,0.06 -0.11,0.06 -0.11,0.08 -0.1,0.08 -0.09,0.1 -0.09,0.11 -0.07,0.13 -0.04,0.09 -0.04,0.1 -0.02,0.1 -0.02,0.11 -0.03,9.42 0.01,0.38 0.02,0.35 0.02,0.16 0.03,0.14 0.03,0.12 0.05,0.1 0.07,0.11 0.08,0.1 0.09,0.1 0.11,0.08 0.11,0.07 0.12,0.06 0.13,0.06 0.13,0.04 0.13,0.04 0.14,0.03 0.28,0.05 0.27,0.04 0.26,0.02 0,1.96 -8.74,0 0,-1.94 0.01,-0.01 0.02,-0.02 0.08,-0.01 0.15,-0.02 0.49,-0.09 0.25,-0.05 0.23,-0.07 0.12,-0.05 0.1,-0.05 0.11,-0.06 0.1,-0.08 0.08,-0.08 0.08,-0.09 0.07,-0.11 0.05,-0.13 0.03,-0.08 0.03,-0.09 0.03,-0.2 0.01,-0.21 0,-0.21 0,-9.51 -0.01,-0.25 -0.02,-0.12 -0.03,-0.11 -0.04,-0.13 -0.06,-0.12 -0.07,-0.11 -0.09,-0.11 -0.09,-0.09 -0.11,-0.08 -0.1,-0.08 -0.11,-0.06 -0.3,-0.12 -0.25,-0.02 -0.16,-0.02 -0.2,-0.03 -0.23,-0.02 -0.17,0 0,-0.03 -0.02,0 -0.01,-0.02 0,-0.04 0,-1.72 8.77,0 0,1.81 -0.28,0 z" class="ps01" id="path23" style="paint-order: stroke; stroke: rgb(0, 0, 0); fill: rgb(195, 203, 255);"/>
      </g>
    </g>
    <g id="q9" class="ps11" style="stroke-width:1.18200004;stroke-miterlimit:4">
      <g id="xfrm10" transform="translate(49.854,20.0879)">
        <path d="m 169.09,512.81 -0.28,0.02 -0.28,0.05 -0.13,0.03 -0.14,0.04 -0.12,0.04 -0.13,0.06 -0.11,0.06 -0.11,0.08 -0.1,0.08 -0.09,0.1 -0.09,0.11 -0.07,0.13 -0.04,0.09 -0.04,0.1 -0.02,0.1 -0.01,0.11 -0.04,9.42 0.01,0.38 0.02,0.35 0.02,0.16 0.03,0.14 0.04,0.12 0.04,0.1 0.07,0.11 0.08,0.1 0.1,0.1 0.1,0.08 0.11,0.07 0.12,0.06 0.13,0.06 0.13,0.04 0.13,0.04 0.14,0.03 0.28,0.05 0.27,0.04 0.26,0.02 0,1.96 -8.74,0 0,-1.94 0.01,-0.01 0.02,-0.02 0.08,-0.01 0.15,-0.02 0.49,-0.09 0.25,-0.05 0.24,-0.07 0.11,-0.05 0.11,-0.05 0.1,-0.06 0.1,-0.08 0.08,-0.08 0.08,-0.09 0.07,-0.11 0.06,-0.13 0.03,-0.08 0.02,-0.09 0.03,-0.2 0.01,-0.21 0,-0.21 0.01,-9.51 -0.02,-0.25 -0.02,-0.12 -0.02,-0.11 -0.05,-0.13 -0.06,-0.12 -0.07,-0.11 -0.09,-0.11 -0.09,-0.09 -0.1,-0.08 -0.11,-0.08 -0.11,-0.06 -0.3,-0.12 -0.25,-0.02 -0.15,-0.02 -0.21,-0.03 -0.23,-0.02 -0.17,0 0,-0.03 -0.02,0 0,-0.02 -0.01,-0.04 0,-1.72 8.77,0 0,1.81 -0.28,0 z" class="ps00" id="path27" style="fill-rule: evenodd; paint-order: stroke; stroke: rgb(0, 0, 0); fill: rgb(195, 203, 255);"/>
      </g>
    </g>
    <g id="q11" class="ps11" style="stroke-width:1.18200004;stroke-miterlimit:4">
      <g id="xfrm12" transform="translate(49.854,20.0879)">
        <path d="m 169.09,512.81 -0.28,0.02 -0.28,0.05 -0.13,0.03 -0.14,0.04 -0.12,0.04 -0.13,0.06 -0.11,0.06 -0.11,0.08 -0.1,0.08 -0.09,0.1 -0.09,0.11 -0.07,0.13 -0.04,0.09 -0.04,0.1 -0.02,0.1 -0.01,0.11 -0.04,9.42 0.01,0.38 0.02,0.35 0.02,0.16 0.03,0.14 0.04,0.12 0.04,0.1 0.07,0.11 0.08,0.1 0.1,0.1 0.1,0.08 0.11,0.07 0.12,0.06 0.13,0.06 0.13,0.04 0.13,0.04 0.14,0.03 0.28,0.05 0.27,0.04 0.26,0.02 0,1.96 -8.74,0 0,-1.94 0.01,-0.01 0.02,-0.02 0.08,-0.01 0.15,-0.02 0.49,-0.09 0.25,-0.05 0.24,-0.07 0.11,-0.05 0.11,-0.05 0.1,-0.06 0.1,-0.08 0.08,-0.08 0.08,-0.09 0.07,-0.11 0.06,-0.13 0.03,-0.08 0.02,-0.09 0.03,-0.2 0.01,-0.21 0,-0.21 0.01,-9.51 -0.02,-0.25 -0.02,-0.12 -0.02,-0.11 -0.05,-0.13 -0.06,-0.12 -0.07,-0.11 -0.09,-0.11 -0.09,-0.09 -0.1,-0.08 -0.11,-0.08 -0.11,-0.06 -0.3,-0.12 -0.25,-0.02 -0.15,-0.02 -0.21,-0.03 -0.23,-0.02 -0.17,0 0,-0.03 -0.02,0 0,-0.02 -0.01,-0.04 0,-1.72 8.77,0 0,1.81 -0.28,0 z" class="ps01" id="path31" style="paint-order: stroke; stroke: rgb(0, 0, 0); fill: rgb(195, 203, 255);"/>
      </g>
    </g>
    <g id="q13" class="ps11" style="stroke-width:1.18200004;stroke-miterlimit:4">
      <g id="xfrm14" transform="translate(40.2544,20.0879)">
        <path d="m 169.09,512.81 -0.28,0.02 -0.28,0.05 -0.13,0.03 -0.14,0.04 -0.13,0.04 -0.12,0.06 -0.11,0.06 -0.11,0.08 -0.1,0.08 -0.09,0.1 -0.09,0.11 -0.07,0.13 -0.04,0.09 -0.04,0.1 -0.02,0.1 -0.01,0.11 -0.04,9.42 0.01,0.38 0.02,0.35 0.02,0.16 0.03,0.14 0.03,0.12 0.05,0.1 0.07,0.11 0.08,0.1 0.09,0.1 0.11,0.08 0.11,0.07 0.12,0.06 0.13,0.06 0.13,0.04 0.13,0.04 0.14,0.03 0.28,0.05 0.27,0.04 0.26,0.02 0,1.96 -8.74,0 0,-1.94 0,-0.01 0.03,-0.02 0.08,-0.01 0.15,-0.02 0.49,-0.09 0.24,-0.05 0.24,-0.07 0.12,-0.05 0.11,-0.05 0.1,-0.06 0.1,-0.08 0.08,-0.08 0.08,-0.09 0.07,-0.11 0.06,-0.13 0.03,-0.08 0.02,-0.09 0.03,-0.2 0.01,-0.21 0,-0.21 0.01,-9.51 -0.02,-0.25 -0.02,-0.12 -0.03,-0.11 -0.04,-0.13 -0.06,-0.12 -0.08,-0.11 -0.08,-0.11 -0.09,-0.09 -0.11,-0.08 -0.11,-0.08 -0.11,-0.06 -0.29,-0.12 -0.25,-0.02 -0.16,-0.02 -0.2,-0.03 -0.23,-0.02 -0.17,0 0,-0.03 -0.02,0 -0.01,-0.02 0,-0.04 0,-1.72 8.77,0 0,1.81 -0.28,0 z" class="ps00" id="path35" style="fill-rule: evenodd; paint-order: stroke; stroke: rgb(0, 0, 0); fill: rgb(195, 203, 255);"/>
      </g>
    </g>
    <g id="q15" class="ps11" style="stroke-width:1.18200004;stroke-miterlimit:4">
      <g id="xfrm16" transform="translate(40.2544,20.0879)">
        <path d="m 169.09,512.81 -0.28,0.02 -0.28,0.05 -0.13,0.03 -0.14,0.04 -0.13,0.04 -0.12,0.06 -0.11,0.06 -0.11,0.08 -0.1,0.08 -0.09,0.1 -0.09,0.11 -0.07,0.13 -0.04,0.09 -0.04,0.1 -0.02,0.1 -0.01,0.11 -0.04,9.42 0.01,0.38 0.02,0.35 0.02,0.16 0.03,0.14 0.03,0.12 0.05,0.1 0.07,0.11 0.08,0.1 0.09,0.1 0.11,0.08 0.11,0.07 0.12,0.06 0.13,0.06 0.13,0.04 0.13,0.04 0.14,0.03 0.28,0.05 0.27,0.04 0.26,0.02 0,1.96 -8.74,0 0,-1.94 0,-0.01 0.03,-0.02 0.08,-0.01 0.15,-0.02 0.49,-0.09 0.24,-0.05 0.24,-0.07 0.12,-0.05 0.11,-0.05 0.1,-0.06 0.1,-0.08 0.08,-0.08 0.08,-0.09 0.07,-0.11 0.06,-0.13 0.03,-0.08 0.02,-0.09 0.03,-0.2 0.01,-0.21 0,-0.21 0.01,-9.51 -0.02,-0.25 -0.02,-0.12 -0.03,-0.11 -0.04,-0.13 -0.06,-0.12 -0.08,-0.11 -0.08,-0.11 -0.09,-0.09 -0.11,-0.08 -0.11,-0.08 -0.11,-0.06 -0.29,-0.12 -0.25,-0.02 -0.16,-0.02 -0.2,-0.03 -0.23,-0.02 -0.17,0 0,-0.03 -0.02,0 -0.01,-0.02 0,-0.04 0,-1.72 8.77,0 0,1.81 -0.28,0 z" class="ps01" id="path39" style="paint-order: stroke; stroke: rgb(0, 0, 0); fill: rgb(195, 203, 255);"/>
      </g>
    </g>
    <g id="q17" class="ps11" style="stroke-width:1.18200004;stroke-miterlimit:4">
      <g id="xfrm18" transform="translate(50.8599,35.6328)">
        <path d="m 169.09,512.81 -14.76,8.02 -14.6,-8.02 29.36,0 z" class="ps00" id="path43" style="fill-rule: evenodd; paint-order: stroke; stroke: rgb(0, 0, 0); fill: rgb(195, 203, 255);"/>
      </g>
    </g>
    <g id="q19" class="ps11" style="stroke-width:1.18200004;stroke-miterlimit:4">
      <g id="xfrm20" transform="translate(30.6855,19.9707)">
        <path d="m 169.09,512.81 -0.28,0.02 -0.28,0.05 -0.14,0.03 -0.13,0.04 -0.13,0.04 -0.12,0.06 -0.11,0.06 -0.11,0.08 -0.1,0.08 -0.09,0.1 -0.09,0.11 -0.07,0.13 -0.04,0.09 -0.04,0.1 -0.02,0.1 -0.02,0.11 -0.03,9.42 0.01,0.38 0.02,0.35 0.02,0.16 0.03,0.14 0.03,0.12 0.05,0.1 0.07,0.11 0.08,0.1 0.09,0.1 0.11,0.07 0.11,0.08 0.12,0.06 0.13,0.06 0.13,0.04 0.13,0.04 0.14,0.03 0.28,0.05 0.27,0.03 0.26,0.03 0,1.96 -8.74,0 0,-1.94 0.01,-0.01 0.02,-0.01 0.08,-0.02 0.15,-0.02 0.49,-0.09 0.25,-0.05 0.23,-0.07 0.12,-0.05 0.1,-0.05 0.11,-0.07 0.1,-0.07 0.08,-0.08 0.08,-0.09 0.07,-0.11 0.05,-0.13 0.03,-0.08 0.03,-0.09 0.03,-0.2 0.01,-0.21 0,-0.21 0,-9.51 -0.01,-0.25 -0.02,-0.12 -0.03,-0.11 -0.04,-0.13 -0.06,-0.12 -0.07,-0.11 -0.09,-0.11 -0.09,-0.09 -0.11,-0.08 -0.11,-0.08 -0.1,-0.06 -0.3,-0.12 -0.25,-0.02 -0.16,-0.02 -0.2,-0.03 -0.23,-0.02 -0.17,0 0,-0.03 -0.02,0 -0.01,-0.02 0,-0.04 0,-1.72 8.77,0 0,1.81 -0.28,0 z" class="ps00" id="path47" style="fill-rule: evenodd; paint-order: stroke; stroke: rgb(0, 0, 0); fill: rgb(195, 203, 255);"/>
      </g>
    </g>
    <g id="q21" class="ps11" style="stroke-width:1.18200004;stroke-miterlimit:4">
      <g id="xfrm22" transform="translate(49.8853,19.9707)">
        <path d="m 169.09,512.81 -0.28,0.02 -0.28,0.05 -0.13,0.03 -0.14,0.04 -0.12,0.04 -0.13,0.06 -0.11,0.06 -0.11,0.08 -0.1,0.08 -0.09,0.1 -0.08,0.11 -0.08,0.13 -0.04,0.09 -0.04,0.1 -0.02,0.1 -0.01,0.11 -0.04,9.42 0.01,0.38 0.02,0.35 0.02,0.16 0.03,0.14 0.04,0.12 0.04,0.1 0.07,0.11 0.08,0.1 0.1,0.1 0.1,0.07 0.11,0.08 0.12,0.06 0.13,0.06 0.13,0.04 0.13,0.04 0.14,0.03 0.28,0.05 0.27,0.03 0.26,0.03 0,1.96 -8.74,0 0,-1.94 0.01,-0.01 0.02,-0.01 0.08,-0.02 0.15,-0.02 0.49,-0.09 0.25,-0.05 0.24,-0.07 0.11,-0.05 0.11,-0.05 0.1,-0.07 0.1,-0.07 0.08,-0.08 0.08,-0.09 0.07,-0.11 0.06,-0.13 0.03,-0.08 0.02,-0.09 0.03,-0.2 0.01,-0.21 0,-0.21 0.01,-9.51 -0.02,-0.25 -0.02,-0.12 -0.02,-0.11 -0.05,-0.13 -0.06,-0.12 -0.07,-0.11 -0.09,-0.11 -0.09,-0.09 -0.1,-0.08 -0.11,-0.08 -0.11,-0.06 -0.3,-0.12 -0.25,-0.02 -0.16,-0.02 -0.2,-0.03 -0.22,-0.02 -0.18,0 0,-0.03 -0.02,0 0,-0.02 -0.01,-0.04 0,-1.72 8.77,0 0,1.81 -0.28,0 z" class="ps00" id="path51" style="fill-rule: evenodd; paint-order: stroke; stroke: rgb(0, 0, 0); fill: rgb(195, 203, 255);"/>
      </g>
    </g>
    <g id="q23" class="ps11" style="stroke-width:1.18200004;stroke-miterlimit:4">
      <g id="xfrm24" transform="translate(40.2852,19.9707)">
        <path d="m 169.09,512.81 -0.28,0.02 -0.28,0.05 -0.13,0.03 -0.14,0.04 -0.12,0.04 -0.13,0.06 -0.11,0.06 -0.11,0.08 -0.1,0.08 -0.09,0.1 -0.09,0.11 -0.07,0.13 -0.04,0.09 -0.03,0.1 -0.03,0.1 -0.01,0.11 -0.04,9.42 0.01,0.38 0.02,0.35 0.02,0.16 0.03,0.14 0.04,0.12 0.04,0.1 0.07,0.11 0.08,0.1 0.1,0.1 0.1,0.07 0.11,0.08 0.12,0.06 0.13,0.06 0.13,0.04 0.13,0.04 0.14,0.03 0.28,0.05 0.27,0.03 0.26,0.03 0,1.96 -8.74,0 0,-1.94 0.01,-0.01 0.02,-0.01 0.08,-0.02 0.15,-0.02 0.49,-0.09 0.25,-0.05 0.23,-0.07 0.12,-0.05 0.11,-0.05 0.1,-0.07 0.1,-0.07 0.08,-0.08 0.08,-0.09 0.07,-0.11 0.06,-0.13 0.03,-0.08 0.02,-0.09 0.03,-0.2 0.01,-0.21 0,-0.21 0.01,-9.51 -0.02,-0.25 -0.02,-0.12 -0.03,-0.11 -0.04,-0.13 -0.06,-0.12 -0.07,-0.11 -0.09,-0.11 -0.09,-0.09 -0.11,-0.08 -0.1,-0.08 -0.11,-0.06 -0.3,-0.12 -0.25,-0.02 -0.16,-0.02 -0.2,-0.03 -0.22,-0.02 -0.18,0 0,-0.03 -0.02,0 0,-0.02 -0.01,-0.04 0,-1.72 8.77,0 0,1.81 -0.28,0 z" class="ps00" id="path55" style="fill-rule: evenodd; paint-order: stroke; stroke: rgb(0, 0, 0); fill: rgb(195, 203, 255);"/>
      </g>
    </g>
    <g id="xfrm25" transform="scale(531,666)">
      <g id="frm26" transform="scale(0.01,0.01)"/>
    </g>
  </g>
</svg>