<svg id="_圖層_1" version="1.1" xmlns="http://www.w3.org/2000/svg" viewBox="14.61 10.91 431.77 58.18">     <defs id="defs1">         <clipPath id="clippath-1">             <path id="rect1" style="stroke-width:0;fill:none" d="M6.84 7.83h447.12v58.45H6.84z"></path>         </clipPath>         <style id="style1">             .cls-2{stroke-width:0;fill:#fff}         </style>     </defs>     <g clip-path="url(#clippath-1)" id="g16" transform="translate(7.775 3.08)" style="clip-path:url(#clippath-1)">         <path class="cls-2" d="M54.9 29.31H33.1v4.66h2.55s2.38.31 2.38 2.87v21.83s-.19 2.26-1.91 2.89H33.1v4.45h21.8v-4.45h-3.12s-1.86-.66-1.86-3.37v-21.4s-.19-2.77 2.24-2.77h2.74zm-45.4 0h21.8v4.66h-2.55s-2.38.31-2.38 2.87v21.83s.19 2.26 1.91 2.89h3.02v4.45H9.5v-4.45h3.12s1.86-.66 1.86-3.37v-21.4s.19-2.77-2.24-2.77H9.5v-4.71zm69 0H56.7v4.66h2.55s2.38.31 2.38 2.87v21.83s-.19 2.26-1.91 2.89H56.7v4.45h21.8v-4.45h-3.12s-1.86-.66-1.86-3.37v-21.4s-.19-2.77 2.24-2.77h2.74Zm2.66-2.37L44.01 7.83 6.84 26.94h74.33z" id="path1"></path>         <path class="cls-2" id="rect2" d="M93.27 17.65h4.03v18.34h-4.03z"></path>         <path class="cls-2" id="polygon2" d="M113.83 29.95v-12.3h3.78v18.34h-4.03l-7.62-12.28h-.06v12.28h-3.77V17.65h4.01l7.65 12.3z"></path>         <path class="cls-2" d="M125.51 31.47c.22.43.52.78.88 1.04.37.27.8.46 1.29.59.49.12 1.01.19 1.55.19.36 0 .75-.03 1.16-.09.41-.06.8-.18 1.16-.35.36-.17.65-.41.9-.71.24-.29.36-.68.36-1.15 0-.49-.15-.9-.47-1.2-.32-.31-.73-.56-1.24-.77-.51-.21-1.1-.39-1.74-.54-.65-.15-1.31-.32-1.97-.51-.68-.17-1.36-.38-2-.63-.65-.25-1.23-.57-1.75-.97-.51-.39-.93-.88-1.24-1.47-.31-.6-.47-1.31-.47-2.15 0-.94.2-1.75.61-2.46.4-.69.93-1.27 1.58-1.73.65-.46 1.38-.81 2.21-1.02.83-.21 1.64-.33 2.46-.33.96 0 1.88.11 2.76.32.88.22 1.66.56 2.35 1.04.68.47 1.22 1.09 1.63 1.83.41.75.61 1.65.61 2.71h-3.91c-.03-.55-.15-1-.35-1.36-.2-.36-.46-.64-.79-.84-.32-.21-.7-.35-1.12-.44-.42-.09-.88-.13-1.37-.13-.32 0-.65.04-.98.1-.33.07-.62.19-.89.36-.27.17-.48.39-.65.64-.17.25-.26.58-.26.98 0 .36.07.65.2.87.14.22.41.43.82.62.4.18.96.38 1.67.56.71.19 1.64.43 2.79.72.34.07.82.19 1.42.37.61.18 1.21.46 1.81.86.6.39 1.12.92 1.55 1.58.44.65.65 1.5.65 2.53 0 .84-.16 1.62-.49 2.33-.32.72-.81 1.35-1.45 1.87-.64.52-1.44.93-2.39 1.22-.95.28-2.05.44-3.3.44-1 0-1.99-.12-2.94-.37s-1.78-.64-2.52-1.18c-.73-.53-1.31-1.2-1.73-2.03-.43-.82-.64-1.8-.62-2.92h3.9c0 .62.11 1.14.33 1.56" id="path2"></path>         <path class="cls-2" id="polygon3" d="M153.96 17.65v3.4h-5.49v14.94h-4.03V21.05h-5.49v-3.4z"></path>         <path class="cls-2" id="rect3" d="M157.35 17.65h4.03v18.34h-4.03z"></path>         <path class="cls-2" id="polygon4" d="M179.79 17.65v3.4h-5.49v14.94h-4.04V21.05h-5.49v-3.4z"></path>         <path class="cls-2" d="M196.65 34.59c-1.38 1.2-3.31 1.81-5.75 1.81s-4.4-.6-5.76-1.8c-1.36-1.19-2.04-3.04-2.04-5.55v-11.4h4.03v11.4c0 .5.04.99.12 1.47.09.47.27.9.54 1.27s.65.66 1.15.89c.48.23 1.14.35 1.96.35 1.44 0 2.43-.32 2.99-.97.55-.64.82-1.65.82-3.01v-11.4h4.03v11.4c0 2.48-.69 4.32-2.08 5.54" id="path4"></path>         <path class="cls-2" id="polygon5" d="M217.07 17.65v3.4h-5.5v14.94h-4.03V21.05h-5.49v-3.4z"></path>         <path class="cls-2" id="polygon6" d="M224.49 21.05v3.92h8.88v3.13h-8.88v4.5h9.88v3.39h-13.92V17.65h13.71v3.4z"></path>         <path class="cls-2" id="polygon7" d="M253.39 21.05v4.24h7.68v3.12h-7.68v7.58h-4.03V17.65h12.89v3.4z"></path>         <path class="cls-2" d="M269.37 29.14c.18.73.46 1.38.86 1.96.39.58.91 1.05 1.54 1.39.64.35 1.4.53 2.31.53.91 0 1.68-.18 2.3-.53a4.52 4.52 0 0 0 1.55-1.39c.39-.59.68-1.23.86-1.96.18-.73.27-1.48.27-2.25s-.09-1.58-.27-2.34c-.18-.75-.46-1.42-.86-2.01-.39-.59-.91-1.06-1.55-1.41-.64-.35-1.4-.53-2.3-.53-.9 0-1.68.18-2.31.53-.63.35-1.15.82-1.54 1.41-.4.59-.68 1.26-.86 2.01-.18.76-.27 1.54-.27 2.34 0 .8.09 1.52.27 2.25m-3.68-6.05c.41-1.18 1-2.19 1.77-3.07.77-.87 1.72-1.55 2.84-2.06 1.12-.49 2.38-.74 3.79-.74 1.41 0 2.68.25 3.8.74 1.11.5 2.06 1.19 2.83 2.06.77.87 1.36 1.9 1.77 3.07.41 1.17.62 2.44.62 3.81s-.21 2.58-.62 3.74c-.42 1.16-1 2.16-1.77 3.01-.77.85-1.72 1.53-2.83 2.02-1.12.48-2.38.73-3.8.73s-2.66-.25-3.79-.73a7.994 7.994 0 0 1-2.84-2.02c-.77-.85-1.36-1.86-1.77-3.01-.41-1.16-.62-2.4-.62-3.74 0-1.34.21-2.65.62-3.81" id="path7"></path>         <path class="cls-2" d="M295.56 25.95c.92 0 1.62-.21 2.09-.62.46-.41.69-1.08.69-2 0-.92-.23-1.54-.69-1.93-.46-.41-1.16-.61-2.09-.61h-4.42v5.16zm1.44-8.3c.82 0 1.56.13 2.22.4.66.27 1.22.63 1.7 1.09.46.46.82 1 1.08 1.6.25.61.37 1.26.37 1.96 0 1.08-.23 2.02-.68 2.81-.46.79-1.19 1.38-2.22 1.79v.05c.49.13.91.35 1.23.63.32.28.59.62.8 1 .21.38.36.82.46 1.27.1.45.16.92.19 1.38.02.29.04.64.05 1.02.02.39.05.8.09 1.2.05.41.11.8.21 1.17.1.37.24.68.43.94h-4.03c-.23-.59-.36-1.27-.42-2.09-.05-.81-.13-1.57-.23-2.3-.14-.96-.43-1.66-.87-2.1-.44-.44-1.17-.66-2.18-.66h-4.03v7.16h-4.03V17.66h9.89z" id="path8"></path>         <path class="cls-2" id="rect8" d="M93.27 47h4.03v18.34h-4.03z"></path>         <path class="cls-2" id="polygon8" d="M113.83 59.29V47h3.78v18.33h-4.03l-7.62-12.28h-.06v12.28h-3.77V47h4.01l7.65 12.29z"></path>         <path class="cls-2" id="polygon9" d="M126.46 50.38v4.24h7.68v3.14h-7.68v7.57h-4.03V47h12.9v3.38z"></path>         <path class="cls-2" d="M142.45 58.49c.18.73.46 1.38.86 1.96.39.58.91 1.05 1.54 1.39.64.35 1.4.53 2.31.53.91 0 1.68-.18 2.3-.53a4.52 4.52 0 0 0 1.55-1.39c.39-.59.68-1.23.86-1.96.18-.73.27-1.48.27-2.25s-.09-1.58-.27-2.34c-.18-.75-.46-1.42-.86-2.01-.39-.59-.91-1.06-1.55-1.41-.63-.35-1.4-.53-2.3-.53-.9 0-1.68.18-2.31.53-.63.35-1.15.82-1.54 1.41-.4.59-.68 1.26-.86 2.01-.18.76-.27 1.54-.27 2.34 0 .8.09 1.52.27 2.25m-3.69-6.06c.41-1.18 1-2.19 1.77-3.07.77-.87 1.72-1.55 2.84-2.06 1.12-.49 2.38-.74 3.79-.74 1.41 0 2.68.25 3.8.74 1.11.5 2.06 1.19 2.83 2.06.77.87 1.36 1.9 1.77 3.07.41 1.17.62 2.44.62 3.81s-.21 2.58-.62 3.74c-.41 1.16-1 2.16-1.77 3.01-.77.85-1.72 1.53-2.83 2.02-1.12.48-2.38.73-3.8.73s-2.66-.25-3.79-.73c-1.12-.49-2.07-1.16-2.84-2.02-.77-.85-1.36-1.86-1.77-3.01-.41-1.16-.62-2.4-.62-3.74 0-1.34.21-2.65.62-3.81" id="path9"></path>         <path class="cls-2" d="M168.64 55.29c.92 0 1.62-.21 2.09-.62.46-.41.69-1.08.69-2 0-.92-.23-1.54-.69-1.93-.46-.41-1.16-.61-2.09-.61h-4.42v5.16h4.42zm1.44-8.29c.82 0 1.56.13 2.22.4.66.27 1.22.63 1.7 1.09.46.46.82 1 1.08 1.61.25.61.37 1.26.37 1.96 0 1.08-.23 2.02-.68 2.81-.46.79-1.19 1.38-2.22 1.79v.06c.49.13.91.35 1.23.63.32.28.59.62.8 1 .21.38.36.81.46 1.27.09.46.16.92.19 1.38.02.29.04.64.05 1.02.02.39.05.8.09 1.2.05.42.11.8.2 1.17.09.37.24.68.43.94h-4.03c-.23-.59-.36-1.28-.42-2.09-.05-.81-.13-1.57-.23-2.31-.14-.96-.43-1.66-.87-2.1-.44-.44-1.18-.66-2.18-.66h-4.03v7.16h-4.03V46.99h9.89v.02z" id="path10"></path>         <path class="cls-2" id="polygon10" d="M190.03 59.61 194.09 47h5.67v18.33h-3.78v-13h-.05l-4.49 13h-3.11l-4.49-12.86h-.05v12.86h-3.77V47h5.67l4.29 12.61z"></path>         <path class="cls-2" d="m213.96 58.24-2.31-6.73h-.05l-2.39 6.73zM213.73 47l6.85 18.34h-4.19l-1.38-4.09h-6.85l-1.43 4.09h-4.06L209.6 47Z" id="path11"></path>         <path class="cls-2" id="polygon11" d="M234.67 47v3.39h-5.49v14.93h-4.03V50.39h-5.5V47z"></path>         <path class="cls-2" id="rect11" d="M238.06 47h4.03v18.34h-4.03z"></path>         <path class="cls-2" d="M250.43 58.49c.18.73.46 1.38.86 1.96.39.58.91 1.05 1.54 1.39.64.35 1.4.53 2.31.53.91 0 1.68-.18 2.31-.53a4.52 4.52 0 0 0 1.55-1.39c.39-.59.68-1.23.86-1.96.18-.73.27-1.48.27-2.25s-.09-1.58-.27-2.34c-.18-.75-.46-1.42-.86-2.01-.39-.59-.91-1.06-1.55-1.41-.64-.35-1.4-.53-2.31-.53-.91 0-1.68.18-2.31.53-.63.35-1.15.82-1.54 1.41-.4.59-.68 1.26-.86 2.01-.18.76-.27 1.54-.27 2.34 0 .8.09 1.52.27 2.25m-3.69-6.06c.41-1.18 1-2.19 1.77-3.07.77-.87 1.72-1.55 2.84-2.06 1.12-.49 2.38-.74 3.78-.74s2.68.25 3.8.74c1.11.5 2.06 1.19 2.83 2.06.77.87 1.36 1.9 1.76 3.07.42 1.17.62 2.44.62 3.81s-.21 2.58-.62 3.74a8.92 8.92 0 0 1-1.76 3.01c-.76.85-1.72 1.53-2.83 2.02-1.12.48-2.38.73-3.8.73s-2.66-.25-3.78-.73c-1.12-.49-2.07-1.16-2.84-2.02-.77-.85-1.36-1.86-1.77-3.01-.41-1.16-.62-2.4-.62-3.74 0-1.34.21-2.65.62-3.81" id="path12"></path>         <path class="cls-2" id="polygon12" d="M279.88 59.29V47h3.78v18.33h-4.03L272 53.05h-.05v12.28h-3.78V47h4.01l7.66 12.29z"></path>         <path class="cls-2" id="rect12" d="M299.47 47h4.03v18.34h-4.03z"></path>         <path class="cls-2" id="polygon13" d="M320.03 59.29V47h3.78v18.33h-4.03l-7.63-12.28h-.05v12.28h-3.78V47h4.01l7.66 12.29z"></path>         <path class="cls-2" d="M336.26 61.94c.59 0 1.15-.09 1.7-.28.55-.19 1.03-.5 1.46-.94.43-.44.77-1 1.02-1.71.26-.7.38-1.55.38-2.57 0-.92-.09-1.75-.27-2.5-.18-.74-.47-1.38-.88-1.92-.41-.54-.95-.94-1.63-1.22-.67-.28-1.51-.42-2.5-.42h-2.88v11.55h3.6zm.28-14.94c1.19 0 2.28.19 3.3.56 1.02.38 1.9.94 2.65 1.7.75.75 1.33 1.7 1.74 2.83.41 1.13.63 2.46.63 3.98 0 1.34-.17 2.56-.51 3.7-.34 1.13-.86 2.1-1.55 2.93-.69.82-1.55 1.47-2.59 1.93-1.04.47-2.26.71-3.66.71h-7.91V47h7.91z" id="path13"></path>         <path class="cls-2" d="M362.42 63.93c-1.38 1.2-3.31 1.81-5.75 1.81s-4.4-.6-5.76-1.8c-1.36-1.19-2.04-3.04-2.04-5.55v-11.4h4.03v11.4c0 .5.04.99.12 1.47.09.47.27.9.54 1.27s.65.66 1.15.89c.48.23 1.14.35 1.96.35 1.44 0 2.43-.32 2.99-.97.55-.64.82-1.65.82-3.01v-11.4h4.03v11.4c0 2.48-.69 4.32-2.08 5.54" id="path14"></path>         <path class="cls-2" d="M372.33 60.81c.22.43.52.78.88 1.04.37.27.8.46 1.29.59.49.12 1.01.19 1.55.19.36 0 .75-.03 1.16-.09.42-.06.8-.18 1.16-.35.36-.17.65-.41.89-.7s.36-.68.36-1.15c0-.49-.15-.9-.47-1.2-.31-.3-.73-.56-1.25-.77-.51-.21-1.09-.39-1.74-.54-.65-.15-1.31-.32-1.98-.51-.68-.17-1.36-.38-2-.63a7.2 7.2 0 0 1-1.75-.96c-.51-.39-.93-.88-1.24-1.48-.31-.59-.47-1.31-.47-2.14 0-.94.21-1.75.61-2.46.41-.69.93-1.27 1.58-1.73.65-.46 1.38-.81 2.21-1.03.82-.22 1.64-.33 2.46-.33.96 0 1.88.11 2.76.32.88.22 1.66.56 2.35 1.04.68.47 1.22 1.09 1.63 1.83.4.75.61 1.65.61 2.71h-3.91c-.04-.55-.15-1-.35-1.36-.19-.36-.46-.64-.78-.84-.32-.21-.7-.35-1.12-.44-.42-.09-.88-.13-1.37-.13-.32 0-.65.04-.98.1-.33.07-.63.19-.89.36-.26.17-.48.39-.65.64-.17.25-.26.58-.26.98 0 .36.07.65.2.87.14.22.41.43.82.62.4.18.96.38 1.67.56.71.19 1.64.43 2.79.72.34.07.82.19 1.43.37s1.21.46 1.81.86c.6.39 1.12.92 1.55 1.58.44.65.65 1.5.65 2.53 0 .83-.16 1.62-.48 2.33-.32.72-.81 1.35-1.45 1.87-.64.52-1.43.93-2.39 1.22-.95.28-2.05.44-3.3.44-1.01 0-1.99-.12-2.94-.37s-1.78-.64-2.51-1.18c-.73-.54-1.31-1.2-1.73-2.03-.43-.82-.64-1.8-.62-2.92h3.9c0 .62.11 1.14.33 1.56" id="path15"></path>         <path class="cls-2" id="polygon15" d="M400.77 47v3.39h-5.49v14.93h-4.03V50.39h-5.49V47z"></path>         <path class="cls-2" d="M412.61 55.29c.92 0 1.62-.21 2.09-.62.46-.41.69-1.08.69-2 0-.92-.23-1.54-.69-1.93-.46-.41-1.16-.61-2.09-.61h-4.42v5.16h4.42zm1.44-8.29c.82 0 1.56.13 2.22.4.66.27 1.22.63 1.7 1.09.46.46.82 1 1.08 1.61.25.61.37 1.26.37 1.96 0 1.08-.23 2.02-.68 2.81-.46.79-1.19 1.38-2.22 1.79v.06c.49.13.91.35 1.23.63.32.28.59.62.8 1 .21.38.36.81.46 1.27.09.46.16.92.19 1.38.02.29.04.64.05 1.02.02.39.05.8.09 1.2.05.42.11.8.21 1.17.1.37.24.68.43.94h-4.03c-.23-.59-.36-1.28-.42-2.09-.05-.81-.13-1.57-.23-2.31-.14-.96-.43-1.66-.87-2.1-.44-.44-1.17-.66-2.18-.66h-4.03v7.16h-4.03V46.99h9.89v.02z" id="path16"></path>         <path class="cls-2" id="polygon16" d="m429.85 54.24 4.27-7.24h4.49l-6.79 11.3v7.03h-4.04v-7.14L421.06 47h4.52z"></path>     </g> </svg>