<?xml version="1.0" encoding="utf-8"?>
<svg xmlns="http://www.w3.org/2000/svg" viewBox="0 0 500 500" xmlns:bx="https://boxy-svg.com">
  <defs>
    <style>.cls-1{fill:#00a2c7;}.cls-2{fill:#03b8df;}.cls-3{fill:#fff;}.cls-4{fill:#aacf52;}</style>
    <bx:export>
      <bx:file format="svg" href="#object-0"/>
    </bx:export>
  </defs>
  <title>edu-logo-white</title>
  <g style="" transform="matrix(1.285744, 0, 0, 1.285677, -137.265991, -137.310287)" id="object-0">
    <g id="g5">
      <path id="path7" class="cls-1" d="M490.5,301.25c0,104.51-84.76,189.3-189.28,189.3s-189.31-84.79-189.31-189.3S196.67,112,301.22,112,490.5,196.71,490.5,301.25Z"/>
    </g>
    <g id="g9">
      <path id="path11" class="cls-2" d="M253.34,116.58,220.72,222.24H182.26l-50,167.21s71.1,103.8,165.26,103.8S453.2,410.6,464.73,387.55L410.94,222.24h-44.2L339.81,112.75S286,107,253.34,116.58Z"/>
    </g>
    <g id="g13">
      <path id="path15" class="cls-3" d="M276.39,114.65,251.45,224.19H222.6L163,429.8s63.42,63.45,132.61,63.45,126.85-40.36,140.29-63.45L372.49,229.92H343.65l-26.9-113.34-40.36-1.93Z"/>
    </g>
    <g id="g17">
      <g id="g19">
        <path id="path21" class="cls-4" d="M172,435.89a189.11,189.11,0,0,0,259.57,6.05c-33.86-25.78-81.37-41.93-134-41.93-48.36,0-92.43,13.61-125.55,35.88Z"/>
      </g>
      <g id="g23">
        <g id="g25">
          <path id="path27" class="cls-4" d="M298.52,325.37c-10.38-16-33.22-41.63-73.21-41.63,0,0,16,72.05,70,80a18.61,18.61,0,0,0,3.22-2.43,17.86,17.86,0,0,0,3.18,2.43c54-8,70.05-80,70.05-80C331.76,283.74,308.88,309.39,298.52,325.37Z"/>
        </g>
        <g id="g29">
          <rect id="rect31" class="cls-4" x="289.87" y="347.17" width="17.29" height="63.43"/>
        </g>
      </g>
    </g>
    <g id="g33">
      <path id="path35" class="cls-3" d="M301.21,495.7c-107.22,0-194.45-87.23-194.45-194.45S194,106.8,301.21,106.8,495.64,194,495.64,301.25,408.42,495.7,301.21,495.7Zm0-378.6C199.66,117.1,117,199.71,117,301.25s82.62,184.16,184.17,184.16S485.35,402.8,485.35,301.25,402.75,117.1,301.21,117.1Z"/>
    </g>
  </g>
</svg>