<svg xmlns="http://www.w3.org/2000/svg" version="1.1" xmlns:xlink="http://www.w3.org/1999/xlink" width="281.88" height="317.07"><svg xmlns="http://www.w3.org/2000/svg" viewBox="145.97 113.8 281.88 317.07">
    <path d="M364.247 272.151 364.5 430.5l26.5.3c14.575.165 28.868.02 31.763-.323 5.264-.624 5.264-.624 5-143.801-.263-143.176-.263-143.176-3.437-149.877-1.751-3.696-5.249-8.774-7.8-11.325-2.554-2.554-7.625-6.046-11.325-7.797-6.591-3.12-6.985-3.178-23.954-3.524l-17.253-.351.253 158.349" fill="#3daecc" fill-rule="evenodd"></path>
    <path d="M339.5 221.398c-5.186 5.346-8.944 8.162-14.5 10.868-4.125 2.009-10.2 4.332-13.5 5.162-3.3.83-11.916 2.188-19.147 3.018-7.231.829-15.331 2.247-18 3.149-2.669.903-7.331 2.89-10.36 4.415-3.028 1.525-8.294 4.869-11.701 7.43s-8.31 7.448-10.895 10.858c-2.585 3.411-6.156 9.352-7.935 13.202-1.78 3.85-3.964 10.25-4.855 14.222-.89 3.973-1.909 13.933-2.264 22.135-.355 8.202-.348 15.689.016 16.637.54 1.406 1.904.457 7.401-5.149 4.35-4.435 9.238-8.178 13.785-10.555 3.875-2.026 10.4-4.6 14.5-5.719 4.1-1.12 12.45-2.47 18.554-3.001 6.105-.531 13.305-1.487 16-2.124 2.696-.638 8.726-3.004 13.401-5.259 6.884-3.32 10.117-5.724 17.005-12.643 4.677-4.699 9.764-10.9 11.304-13.78 1.541-2.88 3.914-8.505 5.276-12.5 1.361-3.995 2.904-11.314 3.428-16.264.524-4.95.96-14.062.97-20.25.009-6.187-.32-11.209-.733-11.159-.413.05-3.9 3.338-7.75 7.307" fill="#51b45f" fill-rule="evenodd"></path>
    <path d="M146.237 257.75c.263 143.75.263 143.75 3.063 149.75 1.539 3.3 4.914 8.175 7.5 10.834 2.585 2.658 7.304 6.16 10.486 7.782 3.928 2.002 8.263 3.232 13.5 3.829 4.243.485 11.764.761 16.714.614 4.95-.146 9.794-.332 10.763-.412 1.677-.14 1.751-7.146 1.5-142.897-.263-142.75-.263-142.75-2.567-148.452-1.267-3.136-4.303-7.925-6.747-10.644-2.444-2.718-6.587-6.318-9.206-7.998-2.62-1.681-7.44-3.754-10.713-4.606-4.032-1.05-10.561-1.55-20.253-1.55h-14.304l.264 143.75" fill="#e5a832" fill-rule="evenodd"></path>
</svg><style>@media (prefers-color-scheme: light) { :root { filter: none; } }
@media (prefers-color-scheme: dark) { :root { filter: none; } }
</style></svg>