<?xml version="1.0" encoding="UTF-8"?><svg id="ABB_Logo_tagline" xmlns="http://www.w3.org/2000/svg" viewBox="0 0 218.61 30"><defs><style>.cls-1{fill:#231f20;}.cls-2{fill:#ff000f;}</style></defs><path class="cls-2" d="M66.85,30v-14.55h10.25c.39.72.69,1.48.92,2.28.22.81.34,1.67.34,2.6,0,1.79-.4,3.42-1.19,4.88-.79,1.46-1.91,2.63-3.36,3.49-1.45.87-3.16,1.3-5.13,1.3h-1.84ZM66.85,14.6V0h1.84C70.96,0,72.68.6,73.86,1.81c1.18,1.21,1.77,2.71,1.77,4.5,0,1.1-.24,2.11-.72,3.02-.48.91-1.13,1.68-1.97,2.31,1.4.6,2.58,1.58,3.54,2.96h-9.63ZM57.13,15.45h8.82v14.55h-8.82v-14.55ZM57.13,0h8.82v14.6h-8.82V0ZM42.05,30v-14.55h10.16c.92,1.49,1.39,3.12,1.39,4.88s-.4,3.42-1.19,4.88c-.79,1.46-1.92,2.63-3.38,3.49-1.46.87-3.2,1.3-5.19,1.3h-1.79ZM42.05,14.6V0h1.79C46.1,0,47.84.6,49.05,1.81c1.21,1.21,1.81,2.71,1.81,4.5,0,1.1-.26,2.11-.78,3.02-.52.91-1.17,1.68-1.95,2.31,1.34.6,2.52,1.58,3.54,2.96h-9.63ZM32.37,15.45h8.78v14.55h-8.78v-14.55ZM32.37,0h8.78v14.6h-8.78V0ZM22.3,30l-2.1-6.05h-4.79v-8.51h9.36l5.11,14.55h-7.57ZM15.4,14.6V0h3.9l5.19,14.6h-9.09ZM5.42,14.6L10.57,0h3.94v14.6H5.42ZM0,30l5.1-14.55h9.4v8.51h-4.84l-2.06,6.05H0Z"/><polygon class="cls-1" points="92.91 18.81 92.91 20.69 97.56 20.69 97.56 28.98 99.56 28.98 99.56 20.69 104.21 20.69 104.21 18.81 92.91 18.81"/><path class="cls-1" d="M111.42,27.37c1.34,0,2.38-.31,3.13-.92s1.13-1.47,1.13-2.56-.38-1.94-1.13-2.56c-.75-.61-1.8-.92-3.13-.92s-2.38.31-3.13.92c-.75.61-1.13,1.46-1.13,2.56s.38,1.95,1.13,2.56,1.8.92,3.13.92M111.42,29.22c-1.31,0-2.44-.22-3.41-.66-.97-.44-1.71-1.06-2.25-1.86-.53-.8-.8-1.73-.8-2.81s.27-2.02.8-2.82c.53-.79,1.28-1.41,2.25-1.85.97-.44,2.1-.66,3.41-.66s2.44.22,3.41.66c.97.44,1.71,1.06,2.25,1.85.53.79.8,1.73.8,2.82s-.27,2.01-.8,2.81c-.53.8-1.28,1.42-2.25,1.86-.97.44-2.1.66-3.41.66"/><path class="cls-1" d="M130.45,27.37c1.34,0,2.38-.31,3.13-.92.75-.61,1.13-1.47,1.13-2.56s-.38-1.94-1.13-2.56c-.75-.61-1.8-.92-3.13-.92s-2.38.31-3.13.92c-.75.61-1.13,1.46-1.13,2.56s.38,1.95,1.13,2.56c.75.61,1.8.92,3.13.92M130.45,29.22c-1.31,0-2.44-.22-3.41-.66-.97-.44-1.71-1.06-2.25-1.86-.53-.8-.8-1.73-.8-2.81s.27-2.02.8-2.82c.53-.79,1.28-1.41,2.25-1.85.97-.44,2.1-.66,3.41-.66s2.44.22,3.41.66c.97.44,1.71,1.06,2.25,1.85.53.79.8,1.73.8,2.82s-.27,2.01-.8,2.81c-.53.8-1.28,1.42-2.25,1.86-.97.44-2.1.66-3.41.66"/><path class="cls-1" d="M144.42,29.22c-1.77,0-3.14-.37-4.1-1.12-.96-.75-1.44-1.81-1.44-3.19v-6.1h2v5.83c0,.93.28,1.62.86,2.06.57.45,1.46.67,2.68.67s2.11-.22,2.68-.67c.57-.44.86-1.13.86-2.06v-5.83h2v6.1c0,1.38-.48,2.44-1.43,3.19-.96.75-2.33,1.12-4.11,1.12"/><polygon class="cls-1" points="151.81 18.81 151.81 20.69 156.45 20.69 156.45 28.98 158.46 28.98 158.46 20.69 163.1 20.69 163.1 18.81 151.81 18.81"/><path class="cls-1" d="M167.11,23.49h4.87c.56,0,.99-.12,1.3-.37.31-.25.46-.59.46-1.04s-.15-.79-.46-1.04c-.31-.25-.74-.37-1.3-.37h-4.87v2.82ZM165.1,28.98v-10.17h6.98c1.17,0,2.11.26,2.79.77.69.52,1.03,1.23,1.03,2.14,0,.73-.22,1.34-.66,1.84-.44.5-1.04.83-1.8,1,.47.1.84.3,1.12.58.28.29.5.71.68,1.25l.82,2.58h-2.13l-.62-1.99c-.13-.45-.3-.79-.5-1.03s-.49-.41-.85-.51c-.36-.1-.87-.14-1.5-.14h-3.35v3.67h-2Z"/><path class="cls-1" d="M183.55,29.22c-1.77,0-3.14-.37-4.1-1.12-.96-.75-1.44-1.81-1.44-3.19v-6.1h2v5.83c0,.93.28,1.62.86,2.06.57.45,1.46.67,2.68.67s2.11-.22,2.68-.67c.57-.44.86-1.13.86-2.06v-5.83h2v6.1c0,1.38-.48,2.44-1.43,3.19-.96.75-2.33,1.12-4.11,1.12"/><path class="cls-1" d="M191.55,28.98v-10.17h2.11l7.36,7.57v-7.57h2v9.11c0,.71-.36,1.06-1.06,1.06h-1.05l-7.36-7.57v7.57h-2Z"/><polygon class="cls-1" points="93.52 .99 93.52 11.16 103.19 11.16 103.19 9.31 95.52 9.31 95.52 6.91 102.51 6.91 102.51 5.09 95.52 5.09 95.52 2.84 103.19 2.84 103.19 .99 93.52 .99"/><path class="cls-1" d="M105.5,11.16V.99h2.11l7.36,7.57V.99h2v9.11c0,.71-.35,1.06-1.06,1.06h-1.05l-7.36-7.57v7.57h-2Z"/><path class="cls-1" d="M125.9,11.4c-1.4,0-2.6-.21-3.62-.64-1.02-.43-1.8-1.04-2.35-1.84-.55-.8-.83-1.75-.83-2.87s.27-2.04.81-2.83c.54-.79,1.31-1.41,2.32-1.84,1-.43,2.18-.65,3.54-.65,1.17,0,2.23.17,3.16.49.93.33,1.71.81,2.32,1.43l-1.37,1.47c-.55-.52-1.17-.9-1.86-1.16-.69-.26-1.48-.39-2.36-.39-1.4,0-2.47.3-3.23.9-.76.6-1.14,1.45-1.14,2.56v.02c0,1.14.4,2.02,1.19,2.64.79.62,1.96.93,3.48.93.58,0,1.17-.05,1.78-.15.61-.1,1.22-.28,1.83-.55v-1.56h-4.3v-1.79h5.04c.76,0,1.14.39,1.14,1.18v3.28c-.86.44-1.74.77-2.63,1-.89.23-1.87.35-2.93.35"/><polygon class="cls-1" points="133.37 .99 133.37 2.81 136.25 2.81 136.25 9.34 133.37 9.34 133.37 11.16 141.14 11.16 141.14 9.34 138.25 9.34 138.25 2.81 141.14 2.81 141.14 .99 133.37 .99"/><path class="cls-1" d="M143.35,11.16V.99h2.11l7.36,7.57V.99h2v9.11c0,.71-.35,1.06-1.06,1.06h-1.05l-7.36-7.57v7.57h-2Z"/><polygon class="cls-1" points="157.44 .99 157.44 11.16 167.11 11.16 167.11 9.31 159.44 9.31 159.44 6.91 166.43 6.91 166.43 5.09 159.44 5.09 159.44 2.84 167.11 2.84 167.11 .99 157.44 .99"/><polygon class="cls-1" points="169.42 .99 169.42 11.16 179.09 11.16 179.09 9.31 171.42 9.31 171.42 6.91 178.4 6.91 178.4 5.09 171.42 5.09 171.42 2.84 179.09 2.84 179.09 .99 169.42 .99"/><path class="cls-1" d="M183.4,5.67h4.87c.56,0,.99-.12,1.3-.37.31-.25.46-.59.46-1.04s-.15-.79-.46-1.04c-.31-.25-.74-.37-1.3-.37h-4.87v2.82ZM181.39,11.16V.99h6.98c1.17,0,2.11.26,2.79.77.69.52,1.03,1.23,1.03,2.14,0,.73-.22,1.34-.66,1.84-.44.5-1.04.83-1.8,1,.47.1.84.3,1.12.58.28.29.5.71.68,1.25l.82,2.58h-2.13l-.62-1.99c-.13-.45-.3-.79-.5-1.03-.2-.24-.49-.41-.85-.51-.36-.1-.87-.14-1.5-.14h-3.35v3.67h-2Z"/><polygon class="cls-1" points="194.45 .99 194.45 11.16 204.12 11.16 204.12 9.31 196.45 9.31 196.45 6.91 203.43 6.91 203.43 5.09 196.45 5.09 196.45 2.84 204.12 2.84 204.12 .99 194.45 .99"/><path class="cls-1" d="M208.43,9.28h3.89c1.28,0,2.27-.28,2.96-.84.69-.56,1.03-1.35,1.03-2.36s-.34-1.8-1.03-2.36c-.69-.56-1.68-.84-2.96-.84h-3.89v6.41ZM206.42,11.16V.99h5.95c1.26,0,2.36.21,3.29.62.93.41,1.65,1,2.17,1.77.52.76.77,1.66.77,2.69s-.26,1.93-.77,2.69c-.52.76-1.24,1.35-2.17,1.77-.93.42-2.03.63-3.29.63h-5.95Z"/></svg>