<svg xmlns="http://www.w3.org/2000/svg" fill="none" class="_Footer__logo_mv59m_8" viewBox="0 0 93.08 14">
  <g>
    <g>
      <path id="Vector" d="M0 13.812 4.162.19h3.784l4.351 13.622H8.703l-.757-2.65H4.162l-.757 2.65zM6.054 3.595 4.73 8.515h2.648z" style="fill: rgb(0, 129, 132);" fill="currentColor"/>
      <path id="Vector_2" d="M14.379.189h5.486c3.784 0 5.109 1.892 5.109 4.54q0 2.839-2.27 3.973l2.648 4.92h-3.973l-1.892-4.163h-1.703v4.352H14.38zm7.19 4.54c0-1.135-.38-1.891-2.082-1.891h-1.703V6.62h1.703c1.324.19 2.081-.378 2.081-1.891" style="fill: rgb(0, 129, 132);" fill="currentColor"/>
      <path id="Vector_3" d="M27.81.189h4.352c5.108 0 6.81 2.46 6.81 6.622 0 3.216-.946 6.81-6.81 6.81h-4.54V.19zm3.406 2.649v7.946h1.324c2.838 0 3.027-1.703 3.027-3.973 0-2.65-.19-3.973-3.216-3.973z" style="fill: rgb(0, 129, 132);" fill="currentColor"/>
      <path id="Vector_4" d="M48.812.189h3.216v8.892C52.028 13.054 49 14 46.54 14c-2.27 0-5.297-.757-5.297-4.92V.19h3.406v8.324c0 2.27.756 2.838 2.08 2.838 1.514 0 2.082-.757 2.082-2.838z" style="fill: rgb(0, 129, 132);" fill="currentColor"/>
      <path id="Vector_5" d="M55.055 10.973h3.594V3.027h-3.405V.189h10.405v2.838h-3.594v7.946h3.594v2.838H55.244v-2.838z" style="fill: rgb(0, 129, 132);" fill="currentColor"/>
      <path id="Vector_6" d="M71.324 13.621h-3.217V.19h3.784l4.352 8.135V.19h3.216v13.622h-3.406l-4.54-8.703z" style="fill: rgb(0, 129, 132);" fill="currentColor"/>
      <path id="Vector_7" d="M93.082 7c0 3.973-1.514 7-5.865 7-3.973 0-5.676-2.27-5.676-6.81 0-4.163 1.514-7.19 5.676-7.19 3.973 0 5.865 1.703 5.865 7m-3.595 0c0-3.405-.19-4.162-2.27-4.162-1.703-.19-2.081.946-2.081 4.351 0 2.649.189 4.162 2.08 4.162 2.082-.189 2.271-1.324 2.271-4.351" style="fill: rgb(0, 129, 132);" fill="currentColor"/>
    </g>
  </g>
</svg>