<svg version="1.1" xmlns="http://www.w3.org/2000/svg" x="0px" y="0px" enable-background="new 0 0 60.917 44" viewBox="0 0 60.9 60.9">   <rect width="60.9" height="60.9" rx="8" ry="8" style="stroke-width: 0px; stroke: rgb(255, 255, 255); fill: rgb(255, 255, 255);"></rect>   <path fill="#003082" d="M 50.325 38.754 L 50.255 38.809 C 45.187 42.672 40.083 45.02 33.696 46.416 C 23.912 48.555 14.8 47.281 9.916 43.092 C 7.718 41.211 6.489 38.854 6.257 36.088 C 5.665 28.973 10.999 21.616 20.528 16.407 L 20.623 16.354 L 20.513 16.084 L 20.42 16.123 C 9.225 20.627 1.367 29.028 1.966 37.019 C 2.209 40.281 3.671 43.171 6.19 45.363 C 11.386 49.888 20.592 51.295 30.813 49.115 C 39.048 47.363 45.602 43.685 50.444 39.07 L 50.536 38.976 L 50.325 38.754 Z" style="stroke-width: 1;"></path>   <path fill="#892528" d="M 57.757 19.44 C 55.811 15.106 51.543 12.155 45.736 11.145 C 36.355 9.499 25.093 13.536 19.446 20.075 L 19.373 20.159 L 19.549 20.401 L 19.638 20.329 C 23.387 17.206 28.938 14.833 34.483 13.983 C 42.723 12.725 49.635 14.794 52.969 19.52 C 56.211 24.108 55.288 32.963 51.036 38.094 L 50.958 38.192 L 51.17 38.44 L 51.258 38.364 C 57.735 32.199 60.852 26.361 57.757 19.44 Z" style="stroke-width: 1;"></path>   <path fill="#003082" d="M 23.168 31.925 L 16.957 31.925 L 16.291 35.491 L 23.236 35.491 L 22.684 38.415 L 12.264 38.415 L 15.187 22.91 L 25.168 22.91 L 24.594 25.832 L 18.108 25.832 L 17.51 29.006 L 23.721 29.006 L 23.168 31.925 Z" style="stroke-width: 1;"></path>   <path fill="#003082" d="M 29.481 25.854 L 25.676 25.854 L 26.251 22.911 L 39.437 22.911 C 38.647 23.074 37.95 23.556 37.29 24.215 C 36.538 24.966 36.399 25.855 36.399 25.855 L 32.931 25.855 L 30.584 38.417 L 27.134 38.417 L 29.481 25.854 Z" style="stroke-width: 1;"></path>   <path fill="#003082" d="M 36.516 34.621 C 37.575 35.242 39.047 35.746 40.679 35.746 C 41.944 35.746 43.21 35.217 43.21 33.998 C 43.21 33.17 42.496 32.617 40.932 31.926 C 39.137 31.147 37.276 29.926 37.276 27.696 C 37.276 24.497 40.243 22.635 43.715 22.635 C 45.832 22.635 47.073 23.094 47.833 23.485 L 46.706 26.337 C 46.177 26.062 44.889 25.534 43.417 25.579 C 41.761 25.579 40.955 26.337 40.955 27.073 C 40.955 28.042 42.128 28.593 43.463 29.214 C 45.555 30.133 46.936 31.376 46.936 33.424 C 46.936 36.965 43.831 38.692 40.22 38.692 C 37.873 38.645 36.149 38.047 35.274 37.405 L 36.516 34.621 Z" style="stroke-width: 1;"></path> </svg>