<?xml version="1.0" encoding="UTF-8" standalone="no"?>
<svg
   xmlns:dc="http://purl.org/dc/elements/1.1/"
   xmlns:cc="http://creativecommons.org/ns#"
   xmlns:rdf="http://www.w3.org/1999/02/22-rdf-syntax-ns#"
   xmlns:svg="http://www.w3.org/2000/svg"
   xmlns="http://www.w3.org/2000/svg"
   xmlns:sodipodi="http://sodipodi.sourceforge.net/DTD/sodipodi-0.dtd"
   xmlns:inkscape="http://www.inkscape.org/namespaces/inkscape"
   id="svgRoot"
   viewBox="0 0 256 223.58803"
   xml:space="preserve"
   version="1.1"
   inkscape:version="0.47+devel r9232"
   width="256"
   height="223.58803"
   sodipodi:docname="Institute for Information Industry.svg"><metadata
   id="metadata61"><rdf:RDF><cc:Work
       rdf:about=""><dc:format>image/svg+xml</dc:format><dc:type
         rdf:resource="http://purl.org/dc/dcmitype/StillImage" /></cc:Work></rdf:RDF></metadata><sodipodi:namedview
   pagecolor="#ffffff"
   bordercolor="#666666"
   borderopacity="1"
   objecttolerance="10"
   gridtolerance="10"
   guidetolerance="10"
   inkscape:pageopacity="0"
   inkscape:pageshadow="2"
   inkscape:window-width="1024"
   inkscape:window-height="544"
   id="namedview59"
   showgrid="false"
   inkscape:zoom="1.6414117"
   inkscape:cx="128"
   inkscape:cy="111.79402"
   inkscape:window-x="-4"
   inkscape:window-y="-4"
   inkscape:window-maximized="1"
   inkscape:current-layer="svgRoot" />
<defs
   id="defs3">
</defs>
<style
   type="text/css"
   id="style5">

.ps01 { stroke:#FFFFFF;fill:none; }
.ps00 { stroke:none;fill:#201b6b;fill-rule:evenodd; }
.ps10 { stroke-miterlimit:4; }
.ps11 { stroke-width:1.182;stroke-miterlimit:4; }
.ps12 { stroke-width:1;stroke-miterlimit:10; }

</style>
<g
   transform="matrix(8.3819003,0,0,-8.3819003,-1592.2895,4670.1602)"
   id="g7">
<g
   id="q1"
   class="ps10"
   style="stroke-miterlimit:4">
<g
   id="xfrm2"
   transform="translate(50.8286,35.751)">
<path
   d="m 169.09,512.81 -14.76,8.02 -14.6,-8.02 29.36,0 z"
   class="ps00"
   id="path11"
   inkscape:connector-curvature="0"
   style="fill:#201b6b;fill-rule:evenodd;stroke:none" />
</g>
</g>
<g
   id="q3"
   class="ps11"
   style="stroke-width:1.18200004;stroke-miterlimit:4">
<g
   id="xfrm4"
   transform="translate(50.8286,35.751)">
<path
   d="m 169.09,512.81 -14.76,8.02 -14.6,-8.02 29.36,0 z"
   class="ps01"
   id="path15"
   inkscape:connector-curvature="0"
   style="fill:none;stroke:#ffffff" />
</g>
</g>
<g
   id="q5"
   class="ps11"
   style="stroke-width:1.18200004;stroke-miterlimit:4">
<g
   id="xfrm6"
   transform="translate(30.6543,20.0879)">
<path
   d="m 169.09,512.81 -0.28,0.02 -0.28,0.05 -0.14,0.03 -0.13,0.04 -0.13,0.04 -0.12,0.06 -0.11,0.06 -0.11,0.08 -0.1,0.08 -0.09,0.1 -0.09,0.11 -0.07,0.13 -0.04,0.09 -0.04,0.1 -0.02,0.1 -0.02,0.11 -0.03,9.42 0.01,0.38 0.02,0.35 0.02,0.16 0.03,0.14 0.03,0.12 0.05,0.1 0.07,0.11 0.08,0.1 0.09,0.1 0.11,0.08 0.11,0.07 0.12,0.06 0.13,0.06 0.13,0.04 0.13,0.04 0.14,0.03 0.28,0.05 0.27,0.04 0.26,0.02 0,1.96 -8.74,0 0,-1.94 0.01,-0.01 0.02,-0.02 0.08,-0.01 0.15,-0.02 0.49,-0.09 0.25,-0.05 0.23,-0.07 0.12,-0.05 0.1,-0.05 0.11,-0.06 0.1,-0.08 0.08,-0.08 0.08,-0.09 0.07,-0.11 0.05,-0.13 0.03,-0.08 0.03,-0.09 0.03,-0.2 0.01,-0.21 0,-0.21 0,-9.51 -0.01,-0.25 -0.02,-0.12 -0.03,-0.11 -0.04,-0.13 -0.06,-0.12 -0.07,-0.11 -0.09,-0.11 -0.09,-0.09 -0.11,-0.08 -0.1,-0.08 -0.11,-0.06 -0.3,-0.12 -0.25,-0.02 -0.16,-0.02 -0.2,-0.03 -0.23,-0.02 -0.17,0 0,-0.03 -0.02,0 -0.01,-0.02 0,-0.04 0,-1.72 8.77,0 0,1.81 -0.28,0 z"
   class="ps00"
   id="path19"
   inkscape:connector-curvature="0"
   style="fill:#201b6b;fill-rule:evenodd;stroke:none" />
</g>
</g>
<g
   id="q7"
   class="ps11"
   style="stroke-width:1.18200004;stroke-miterlimit:4">
<g
   id="xfrm8"
   transform="translate(30.6543,20.0879)">
<path
   d="m 169.09,512.81 -0.28,0.02 -0.28,0.05 -0.14,0.03 -0.13,0.04 -0.13,0.04 -0.12,0.06 -0.11,0.06 -0.11,0.08 -0.1,0.08 -0.09,0.1 -0.09,0.11 -0.07,0.13 -0.04,0.09 -0.04,0.1 -0.02,0.1 -0.02,0.11 -0.03,9.42 0.01,0.38 0.02,0.35 0.02,0.16 0.03,0.14 0.03,0.12 0.05,0.1 0.07,0.11 0.08,0.1 0.09,0.1 0.11,0.08 0.11,0.07 0.12,0.06 0.13,0.06 0.13,0.04 0.13,0.04 0.14,0.03 0.28,0.05 0.27,0.04 0.26,0.02 0,1.96 -8.74,0 0,-1.94 0.01,-0.01 0.02,-0.02 0.08,-0.01 0.15,-0.02 0.49,-0.09 0.25,-0.05 0.23,-0.07 0.12,-0.05 0.1,-0.05 0.11,-0.06 0.1,-0.08 0.08,-0.08 0.08,-0.09 0.07,-0.11 0.05,-0.13 0.03,-0.08 0.03,-0.09 0.03,-0.2 0.01,-0.21 0,-0.21 0,-9.51 -0.01,-0.25 -0.02,-0.12 -0.03,-0.11 -0.04,-0.13 -0.06,-0.12 -0.07,-0.11 -0.09,-0.11 -0.09,-0.09 -0.11,-0.08 -0.1,-0.08 -0.11,-0.06 -0.3,-0.12 -0.25,-0.02 -0.16,-0.02 -0.2,-0.03 -0.23,-0.02 -0.17,0 0,-0.03 -0.02,0 -0.01,-0.02 0,-0.04 0,-1.72 8.77,0 0,1.81 -0.28,0 z"
   class="ps01"
   id="path23"
   inkscape:connector-curvature="0"
   style="fill:none;stroke:#ffffff" />
</g>
</g>
<g
   id="q9"
   class="ps11"
   style="stroke-width:1.18200004;stroke-miterlimit:4">
<g
   id="xfrm10"
   transform="translate(49.854,20.0879)">
<path
   d="m 169.09,512.81 -0.28,0.02 -0.28,0.05 -0.13,0.03 -0.14,0.04 -0.12,0.04 -0.13,0.06 -0.11,0.06 -0.11,0.08 -0.1,0.08 -0.09,0.1 -0.09,0.11 -0.07,0.13 -0.04,0.09 -0.04,0.1 -0.02,0.1 -0.01,0.11 -0.04,9.42 0.01,0.38 0.02,0.35 0.02,0.16 0.03,0.14 0.04,0.12 0.04,0.1 0.07,0.11 0.08,0.1 0.1,0.1 0.1,0.08 0.11,0.07 0.12,0.06 0.13,0.06 0.13,0.04 0.13,0.04 0.14,0.03 0.28,0.05 0.27,0.04 0.26,0.02 0,1.96 -8.74,0 0,-1.94 0.01,-0.01 0.02,-0.02 0.08,-0.01 0.15,-0.02 0.49,-0.09 0.25,-0.05 0.24,-0.07 0.11,-0.05 0.11,-0.05 0.1,-0.06 0.1,-0.08 0.08,-0.08 0.08,-0.09 0.07,-0.11 0.06,-0.13 0.03,-0.08 0.02,-0.09 0.03,-0.2 0.01,-0.21 0,-0.21 0.01,-9.51 -0.02,-0.25 -0.02,-0.12 -0.02,-0.11 -0.05,-0.13 -0.06,-0.12 -0.07,-0.11 -0.09,-0.11 -0.09,-0.09 -0.1,-0.08 -0.11,-0.08 -0.11,-0.06 -0.3,-0.12 -0.25,-0.02 -0.15,-0.02 -0.21,-0.03 -0.23,-0.02 -0.17,0 0,-0.03 -0.02,0 0,-0.02 -0.01,-0.04 0,-1.72 8.77,0 0,1.81 -0.28,0 z"
   class="ps00"
   id="path27"
   inkscape:connector-curvature="0"
   style="fill:#201b6b;fill-rule:evenodd;stroke:none" />
</g>
</g>
<g
   id="q11"
   class="ps11"
   style="stroke-width:1.18200004;stroke-miterlimit:4">
<g
   id="xfrm12"
   transform="translate(49.854,20.0879)">
<path
   d="m 169.09,512.81 -0.28,0.02 -0.28,0.05 -0.13,0.03 -0.14,0.04 -0.12,0.04 -0.13,0.06 -0.11,0.06 -0.11,0.08 -0.1,0.08 -0.09,0.1 -0.09,0.11 -0.07,0.13 -0.04,0.09 -0.04,0.1 -0.02,0.1 -0.01,0.11 -0.04,9.42 0.01,0.38 0.02,0.35 0.02,0.16 0.03,0.14 0.04,0.12 0.04,0.1 0.07,0.11 0.08,0.1 0.1,0.1 0.1,0.08 0.11,0.07 0.12,0.06 0.13,0.06 0.13,0.04 0.13,0.04 0.14,0.03 0.28,0.05 0.27,0.04 0.26,0.02 0,1.96 -8.74,0 0,-1.94 0.01,-0.01 0.02,-0.02 0.08,-0.01 0.15,-0.02 0.49,-0.09 0.25,-0.05 0.24,-0.07 0.11,-0.05 0.11,-0.05 0.1,-0.06 0.1,-0.08 0.08,-0.08 0.08,-0.09 0.07,-0.11 0.06,-0.13 0.03,-0.08 0.02,-0.09 0.03,-0.2 0.01,-0.21 0,-0.21 0.01,-9.51 -0.02,-0.25 -0.02,-0.12 -0.02,-0.11 -0.05,-0.13 -0.06,-0.12 -0.07,-0.11 -0.09,-0.11 -0.09,-0.09 -0.1,-0.08 -0.11,-0.08 -0.11,-0.06 -0.3,-0.12 -0.25,-0.02 -0.15,-0.02 -0.21,-0.03 -0.23,-0.02 -0.17,0 0,-0.03 -0.02,0 0,-0.02 -0.01,-0.04 0,-1.72 8.77,0 0,1.81 -0.28,0 z"
   class="ps01"
   id="path31"
   inkscape:connector-curvature="0"
   style="fill:none;stroke:#ffffff" />
</g>
</g>
<g
   id="q13"
   class="ps11"
   style="stroke-width:1.18200004;stroke-miterlimit:4">
<g
   id="xfrm14"
   transform="translate(40.2544,20.0879)">
<path
   d="m 169.09,512.81 -0.28,0.02 -0.28,0.05 -0.13,0.03 -0.14,0.04 -0.13,0.04 -0.12,0.06 -0.11,0.06 -0.11,0.08 -0.1,0.08 -0.09,0.1 -0.09,0.11 -0.07,0.13 -0.04,0.09 -0.04,0.1 -0.02,0.1 -0.01,0.11 -0.04,9.42 0.01,0.38 0.02,0.35 0.02,0.16 0.03,0.14 0.03,0.12 0.05,0.1 0.07,0.11 0.08,0.1 0.09,0.1 0.11,0.08 0.11,0.07 0.12,0.06 0.13,0.06 0.13,0.04 0.13,0.04 0.14,0.03 0.28,0.05 0.27,0.04 0.26,0.02 0,1.96 -8.74,0 0,-1.94 0,-0.01 0.03,-0.02 0.08,-0.01 0.15,-0.02 0.49,-0.09 0.24,-0.05 0.24,-0.07 0.12,-0.05 0.11,-0.05 0.1,-0.06 0.1,-0.08 0.08,-0.08 0.08,-0.09 0.07,-0.11 0.06,-0.13 0.03,-0.08 0.02,-0.09 0.03,-0.2 0.01,-0.21 0,-0.21 0.01,-9.51 -0.02,-0.25 -0.02,-0.12 -0.03,-0.11 -0.04,-0.13 -0.06,-0.12 -0.08,-0.11 -0.08,-0.11 -0.09,-0.09 -0.11,-0.08 -0.11,-0.08 -0.11,-0.06 -0.29,-0.12 -0.25,-0.02 -0.16,-0.02 -0.2,-0.03 -0.23,-0.02 -0.17,0 0,-0.03 -0.02,0 -0.01,-0.02 0,-0.04 0,-1.72 8.77,0 0,1.81 -0.28,0 z"
   class="ps00"
   id="path35"
   inkscape:connector-curvature="0"
   style="fill:#201b6b;fill-rule:evenodd;stroke:none" />
</g>
</g>
<g
   id="q15"
   class="ps11"
   style="stroke-width:1.18200004;stroke-miterlimit:4">
<g
   id="xfrm16"
   transform="translate(40.2544,20.0879)">
<path
   d="m 169.09,512.81 -0.28,0.02 -0.28,0.05 -0.13,0.03 -0.14,0.04 -0.13,0.04 -0.12,0.06 -0.11,0.06 -0.11,0.08 -0.1,0.08 -0.09,0.1 -0.09,0.11 -0.07,0.13 -0.04,0.09 -0.04,0.1 -0.02,0.1 -0.01,0.11 -0.04,9.42 0.01,0.38 0.02,0.35 0.02,0.16 0.03,0.14 0.03,0.12 0.05,0.1 0.07,0.11 0.08,0.1 0.09,0.1 0.11,0.08 0.11,0.07 0.12,0.06 0.13,0.06 0.13,0.04 0.13,0.04 0.14,0.03 0.28,0.05 0.27,0.04 0.26,0.02 0,1.96 -8.74,0 0,-1.94 0,-0.01 0.03,-0.02 0.08,-0.01 0.15,-0.02 0.49,-0.09 0.24,-0.05 0.24,-0.07 0.12,-0.05 0.11,-0.05 0.1,-0.06 0.1,-0.08 0.08,-0.08 0.08,-0.09 0.07,-0.11 0.06,-0.13 0.03,-0.08 0.02,-0.09 0.03,-0.2 0.01,-0.21 0,-0.21 0.01,-9.51 -0.02,-0.25 -0.02,-0.12 -0.03,-0.11 -0.04,-0.13 -0.06,-0.12 -0.08,-0.11 -0.08,-0.11 -0.09,-0.09 -0.11,-0.08 -0.11,-0.08 -0.11,-0.06 -0.29,-0.12 -0.25,-0.02 -0.16,-0.02 -0.2,-0.03 -0.23,-0.02 -0.17,0 0,-0.03 -0.02,0 -0.01,-0.02 0,-0.04 0,-1.72 8.77,0 0,1.81 -0.28,0 z"
   class="ps01"
   id="path39"
   inkscape:connector-curvature="0"
   style="fill:none;stroke:#ffffff" />
</g>
</g>
<g
   id="q17"
   class="ps11"
   style="stroke-width:1.18200004;stroke-miterlimit:4">
<g
   id="xfrm18"
   transform="translate(50.8599,35.6328)">
<path
   d="m 169.09,512.81 -14.76,8.02 -14.6,-8.02 29.36,0 z"
   class="ps00"
   id="path43"
   inkscape:connector-curvature="0"
   style="fill:#201b6b;fill-rule:evenodd;stroke:none" />
</g>
</g>
<g
   id="q19"
   class="ps11"
   style="stroke-width:1.18200004;stroke-miterlimit:4">
<g
   id="xfrm20"
   transform="translate(30.6855,19.9707)">
<path
   d="m 169.09,512.81 -0.28,0.02 -0.28,0.05 -0.14,0.03 -0.13,0.04 -0.13,0.04 -0.12,0.06 -0.11,0.06 -0.11,0.08 -0.1,0.08 -0.09,0.1 -0.09,0.11 -0.07,0.13 -0.04,0.09 -0.04,0.1 -0.02,0.1 -0.02,0.11 -0.03,9.42 0.01,0.38 0.02,0.35 0.02,0.16 0.03,0.14 0.03,0.12 0.05,0.1 0.07,0.11 0.08,0.1 0.09,0.1 0.11,0.07 0.11,0.08 0.12,0.06 0.13,0.06 0.13,0.04 0.13,0.04 0.14,0.03 0.28,0.05 0.27,0.03 0.26,0.03 0,1.96 -8.74,0 0,-1.94 0.01,-0.01 0.02,-0.01 0.08,-0.02 0.15,-0.02 0.49,-0.09 0.25,-0.05 0.23,-0.07 0.12,-0.05 0.1,-0.05 0.11,-0.07 0.1,-0.07 0.08,-0.08 0.08,-0.09 0.07,-0.11 0.05,-0.13 0.03,-0.08 0.03,-0.09 0.03,-0.2 0.01,-0.21 0,-0.21 0,-9.51 -0.01,-0.25 -0.02,-0.12 -0.03,-0.11 -0.04,-0.13 -0.06,-0.12 -0.07,-0.11 -0.09,-0.11 -0.09,-0.09 -0.11,-0.08 -0.11,-0.08 -0.1,-0.06 -0.3,-0.12 -0.25,-0.02 -0.16,-0.02 -0.2,-0.03 -0.23,-0.02 -0.17,0 0,-0.03 -0.02,0 -0.01,-0.02 0,-0.04 0,-1.72 8.77,0 0,1.81 -0.28,0 z"
   class="ps00"
   id="path47"
   inkscape:connector-curvature="0"
   style="fill:#201b6b;fill-rule:evenodd;stroke:none" />
</g>
</g>
<g
   id="q21"
   class="ps11"
   style="stroke-width:1.18200004;stroke-miterlimit:4">
<g
   id="xfrm22"
   transform="translate(49.8853,19.9707)">
<path
   d="m 169.09,512.81 -0.28,0.02 -0.28,0.05 -0.13,0.03 -0.14,0.04 -0.12,0.04 -0.13,0.06 -0.11,0.06 -0.11,0.08 -0.1,0.08 -0.09,0.1 -0.08,0.11 -0.08,0.13 -0.04,0.09 -0.04,0.1 -0.02,0.1 -0.01,0.11 -0.04,9.42 0.01,0.38 0.02,0.35 0.02,0.16 0.03,0.14 0.04,0.12 0.04,0.1 0.07,0.11 0.08,0.1 0.1,0.1 0.1,0.07 0.11,0.08 0.12,0.06 0.13,0.06 0.13,0.04 0.13,0.04 0.14,0.03 0.28,0.05 0.27,0.03 0.26,0.03 0,1.96 -8.74,0 0,-1.94 0.01,-0.01 0.02,-0.01 0.08,-0.02 0.15,-0.02 0.49,-0.09 0.25,-0.05 0.24,-0.07 0.11,-0.05 0.11,-0.05 0.1,-0.07 0.1,-0.07 0.08,-0.08 0.08,-0.09 0.07,-0.11 0.06,-0.13 0.03,-0.08 0.02,-0.09 0.03,-0.2 0.01,-0.21 0,-0.21 0.01,-9.51 -0.02,-0.25 -0.02,-0.12 -0.02,-0.11 -0.05,-0.13 -0.06,-0.12 -0.07,-0.11 -0.09,-0.11 -0.09,-0.09 -0.1,-0.08 -0.11,-0.08 -0.11,-0.06 -0.3,-0.12 -0.25,-0.02 -0.16,-0.02 -0.2,-0.03 -0.22,-0.02 -0.18,0 0,-0.03 -0.02,0 0,-0.02 -0.01,-0.04 0,-1.72 8.77,0 0,1.81 -0.28,0 z"
   class="ps00"
   id="path51"
   inkscape:connector-curvature="0"
   style="fill:#201b6b;fill-rule:evenodd;stroke:none" />
</g>
</g>
<g
   id="q23"
   class="ps11"
   style="stroke-width:1.18200004;stroke-miterlimit:4">
<g
   id="xfrm24"
   transform="translate(40.2852,19.9707)">
<path
   d="m 169.09,512.81 -0.28,0.02 -0.28,0.05 -0.13,0.03 -0.14,0.04 -0.12,0.04 -0.13,0.06 -0.11,0.06 -0.11,0.08 -0.1,0.08 -0.09,0.1 -0.09,0.11 -0.07,0.13 -0.04,0.09 -0.03,0.1 -0.03,0.1 -0.01,0.11 -0.04,9.42 0.01,0.38 0.02,0.35 0.02,0.16 0.03,0.14 0.04,0.12 0.04,0.1 0.07,0.11 0.08,0.1 0.1,0.1 0.1,0.07 0.11,0.08 0.12,0.06 0.13,0.06 0.13,0.04 0.13,0.04 0.14,0.03 0.28,0.05 0.27,0.03 0.26,0.03 0,1.96 -8.74,0 0,-1.94 0.01,-0.01 0.02,-0.01 0.08,-0.02 0.15,-0.02 0.49,-0.09 0.25,-0.05 0.23,-0.07 0.12,-0.05 0.11,-0.05 0.1,-0.07 0.1,-0.07 0.08,-0.08 0.08,-0.09 0.07,-0.11 0.06,-0.13 0.03,-0.08 0.02,-0.09 0.03,-0.2 0.01,-0.21 0,-0.21 0.01,-9.51 -0.02,-0.25 -0.02,-0.12 -0.03,-0.11 -0.04,-0.13 -0.06,-0.12 -0.07,-0.11 -0.09,-0.11 -0.09,-0.09 -0.11,-0.08 -0.1,-0.08 -0.11,-0.06 -0.3,-0.12 -0.25,-0.02 -0.16,-0.02 -0.2,-0.03 -0.22,-0.02 -0.18,0 0,-0.03 -0.02,0 0,-0.02 -0.01,-0.04 0,-1.72 8.77,0 0,1.81 -0.28,0 z"
   class="ps00"
   id="path55"
   inkscape:connector-curvature="0"
   style="fill:#201b6b;fill-rule:evenodd;stroke:none" />
</g>
</g>
<g
   id="xfrm25"
   transform="scale(531,666)">
<g
   id="frm26"
   transform="scale(0.01,0.01)">
</g>
</g>
</g>
</svg>