<svg xmlns="http://www.w3.org/2000/svg" xmlns:xlink="http://www.w3.org/1999/xlink" viewBox="14.61 10.91 431.78 58.18"><clipPath id="a"><path d="m2.6 11.1h447.12v58.45h-447.12z"></path></clipPath><g clip-path="url(#a)" transform="translate(12.01 -.19)"><path d="m50.66 32.58h-21.8v4.66h2.55s2.38.31 2.38 2.87v21.83s-.19 2.26-1.91 2.89h-3.02v4.45h21.8v-4.45h-3.12s-1.86-.66-1.86-3.37v-21.4s-.19-2.77 2.24-2.77h2.74zm-45.4 0h21.8v4.66h-2.55s-2.38.31-2.38 2.87v21.83s.19 2.26 1.91 2.89h3.02v4.45h-21.8v-4.45h3.12s1.86-.66 1.86-3.37v-21.4s.19-2.77-2.24-2.77h-2.74zm69.01 0h-21.8v4.66h2.55s2.38.31 2.38 2.87v21.83s-.19 2.26-1.91 2.89h-3.02v4.45h21.8v-4.45h-3.12s-1.86-.66-1.86-3.37v-21.4s-.19-2.77 2.24-2.77h2.74zm2.66-2.37-37.16-19.11-37.17 19.11z" fill="#14156d"></path><g fill="#14116d"><path d="m89.029999 20.93h4.03v18.34h-4.03z"></path><path d="m109.6 33.22v-12.29h3.77v18.33h-4.03l-7.62-12.28h-.06v12.28h-3.77v-18.33h4.01l7.65 12.29z"></path><path d="m121.28 34.74c.22.43.52.78.88 1.04.37.27.8.46 1.29.59.49.12 1.01.19 1.55.19.36 0 .75-.03 1.16-.09s.8-.18 1.16-.35.65-.41.9-.71c.24-.29.36-.68.36-1.15 0-.49-.15-.9-.47-1.2-.32-.31-.73-.56-1.24-.77s-1.1-.39-1.74-.54c-.65-.15-1.31-.32-1.97-.51-.68-.17-1.36-.38-2-.63-.65-.25-1.23-.57-1.75-.97-.51-.39-.93-.88-1.24-1.47-.31-.6-.47-1.31-.47-2.15 0-.94.2-1.75.61-2.46.4-.69.93-1.27 1.58-1.73s1.38-.81 2.21-1.02 1.64-.33 2.46-.33c.96 0 1.88.11 2.76.32.88.22 1.66.56 2.35 1.04.68.47 1.22 1.09 1.63 1.83.41.75.61 1.65.61 2.71h-3.91c-.03-.55-.15-1-.35-1.36s-.46-.64-.79-.84c-.32-.21-.7-.35-1.12-.44s-.88-.13-1.37-.13c-.32 0-.65.04-.98.1-.33.07-.62.19-.89.36s-.48.39-.65.64-.26.58-.26.98c0 .36.07.65.2.87.14.22.41.43.82.62.4.18.96.38 1.67.56.71.19 1.64.43 2.79.72.34.07.82.19 1.42.37.61.18 1.21.46 1.81.86.6.39 1.12.92 1.55 1.58.44.65.65 1.5.65 2.53 0 .84-.16 1.62-.49 2.33-.32.72-.81 1.35-1.45 1.87s-1.44.93-2.39 1.22c-.95.28-2.05.44-3.3.44-1 0-1.99-.12-2.94-.37s-1.78-.64-2.52-1.18c-.73-.53-1.31-1.2-1.73-2.03-.43-.82-.64-1.8-.62-2.92h3.9c0 .62.11 1.14.33 1.56"></path><path d="m149.73 20.93v3.39h-5.5v14.94h-4.03v-14.94h-5.49v-3.39z"></path><path d="m153.11 20.93h4.03v18.34h-4.03z"></path><path d="m175.55 20.93v3.39h-5.49v14.94h-4.04v-14.94h-5.48v-3.39z"></path><path d="m192.42 37.86c-1.38 1.2-3.31 1.81-5.75 1.81s-4.4-.6-5.76-1.8c-1.36-1.19-2.04-3.04-2.04-5.55v-11.4h4.03v11.4c0 .5.04.99.12 1.47.09.47.27.9.54 1.27s.65.66 1.15.89c.48.23 1.14.35 1.96.35 1.44 0 2.43-.32 2.99-.97.55-.64.82-1.65.82-3.01v-11.4h4.03v11.4c0 2.48-.69 4.32-2.08 5.54"></path><path d="m212.83 20.93v3.39h-5.5v14.94h-4.03v-14.94h-5.49v-3.39z"></path><path d="m220.25 24.32v3.93h8.89v3.12h-8.89v4.5h9.88v3.39h-13.92v-18.33h13.71v3.39z"></path><path d="m249.16 24.32v4.24h7.68v3.13h-7.68v7.57h-4.04v-18.33h12.89v3.39z"></path><path d="m265.13 32.42c.18.73.46 1.38.86 1.96.39.58.91 1.05 1.54 1.39.64.35 1.4.53 2.31.53s1.68-.18 2.3-.53c.64-.35 1.15-.82 1.55-1.39.39-.59.68-1.23.86-1.96s.27-1.48.27-2.25-.09-1.58-.27-2.34c-.18-.75-.46-1.42-.86-2.01-.39-.59-.91-1.06-1.55-1.41s-1.4-.53-2.3-.53-1.68.18-2.31.53-1.15.82-1.54 1.41c-.4.59-.68 1.26-.86 2.01-.18.76-.27 1.54-.27 2.34s.09 1.52.27 2.25m-3.68-6.06c.41-1.18 1-2.19 1.77-3.07.77-.87 1.72-1.55 2.84-2.06 1.12-.49 2.38-.74 3.79-.74s2.68.25 3.8.74c1.11.5 2.06 1.19 2.83 2.06s1.36 1.9 1.77 3.07.62 2.44.62 3.81-.21 2.58-.62 3.74c-.42 1.16-1 2.16-1.77 3.01s-1.72 1.53-2.83 2.02c-1.12.48-2.38.73-3.8.73s-2.66-.25-3.79-.73c-1.12-.48-2.07-1.16-2.84-2.02-.77-.85-1.36-1.86-1.77-3.01-.41-1.16-.62-2.4-.62-3.74s.21-2.65.62-3.81"></path><path d="m291.33 29.22c.92 0 1.62-.21 2.09-.62.46-.41.69-1.08.69-2s-.23-1.54-.69-1.93c-.46-.41-1.16-.61-2.09-.61h-4.42v5.16zm1.44-8.29c.82 0 1.56.13 2.22.4s1.22.63 1.7 1.09c.46.46.82 1 1.08 1.6.25.61.37 1.26.37 1.96 0 1.08-.23 2.02-.68 2.81-.46.79-1.19 1.38-2.22 1.79v.05c.49.13.91.35 1.23.63s.59.62.8 1 .36.82.46 1.27.16.92.19 1.38c.02.29.04.64.05 1.02.02.39.05.8.09 1.2.05.41.11.8.21 1.17s.24.68.43.94h-4.03c-.23-.59-.36-1.27-.42-2.09-.05-.81-.13-1.57-.23-2.3-.14-.96-.43-1.66-.87-2.1s-1.17-.66-2.18-.66h-4.03v7.16h-4.03v-18.31h9.89z"></path><path d="m89.029999 50.27h4.03v18.34h-4.03z"></path><path d="m109.6 62.56v-12.29h3.77v18.33h-4.03l-7.62-12.27h-.06v12.27h-3.77v-18.33h4.01l7.65 12.29z"></path><path d="m122.23 53.65v4.24h7.67v3.14h-7.67v7.57h-4.03v-18.33h12.89v3.38z"></path><path d="m138.21 61.76c.18.73.46 1.38.86 1.96.39.58.91 1.05 1.54 1.39.64.35 1.4.53 2.31.53s1.68-.18 2.3-.53c.64-.35 1.15-.82 1.55-1.39.39-.59.68-1.23.86-1.96s.27-1.48.27-2.25-.09-1.58-.27-2.34c-.18-.75-.46-1.42-.86-2.01-.39-.59-.91-1.06-1.55-1.41-.63-.35-1.4-.53-2.3-.53s-1.68.18-2.31.53-1.15.82-1.54 1.41c-.4.59-.68 1.26-.86 2.01-.18.76-.27 1.54-.27 2.34s.09 1.52.27 2.25m-3.69-6.06c.41-1.18 1-2.19 1.77-3.07.77-.87 1.72-1.55 2.84-2.06 1.12-.49 2.38-.74 3.79-.74s2.68.25 3.8.74c1.11.5 2.06 1.19 2.83 2.06s1.36 1.9 1.77 3.07.62 2.44.62 3.81-.21 2.58-.62 3.74-1 2.16-1.77 3.01-1.72 1.53-2.83 2.02c-1.12.48-2.38.73-3.8.73s-2.66-.25-3.79-.73c-1.12-.49-2.07-1.16-2.84-2.02-.77-.85-1.36-1.86-1.77-3.01-.41-1.16-.62-2.4-.62-3.74s.21-2.65.62-3.81"></path><path d="m164.4 58.56c.92 0 1.62-.21 2.09-.62.46-.41.69-1.08.69-2s-.23-1.54-.69-1.93c-.46-.41-1.16-.61-2.09-.61h-4.42v5.16zm1.44-8.29c.82 0 1.56.13 2.22.4s1.22.63 1.7 1.09c.46.46.82 1 1.08 1.61.25.61.37 1.26.37 1.96 0 1.08-.23 2.02-.68 2.81-.46.79-1.19 1.38-2.22 1.79v.06c.49.13.91.35 1.23.63s.59.62.8 1 .36.81.46 1.27c.09.46.16.92.19 1.38.02.29.04.64.05 1.02.02.39.05.8.09 1.2.05.42.11.8.2 1.17s.24.68.43.94h-4.03c-.23-.59-.36-1.28-.42-2.09-.05-.81-.13-1.57-.23-2.31-.14-.96-.43-1.66-.87-2.1s-1.18-.66-2.18-.66h-4.03v7.16h-4.03v-18.34h9.89v.02z"></path><path d="m185.79 62.88 4.06-12.61h5.68v18.33h-3.79v-12.99h-.04l-4.5 12.99h-3.11l-4.49-12.86h-.05v12.86h-3.77v-18.33h5.67l4.29 12.61z"></path><path d="m209.72 61.51-2.31-6.73h-.05l-2.39 6.73zm-.23-11.24 6.85 18.34h-4.19l-1.38-4.09h-6.85l-1.43 4.09h-4.06l6.93-18.34z"></path><path d="m230.43 50.27v3.39h-5.48v14.93h-4.03v-14.93h-5.5v-3.39z"></path><path d="m233.83 50.27h4.03v18.34h-4.03z"></path><path d="m246.19 61.76c.18.73.46 1.38.86 1.96.39.58.91 1.05 1.54 1.39.64.35 1.4.53 2.31.53s1.68-.18 2.31-.53c.64-.35 1.15-.82 1.55-1.39.39-.59.68-1.23.86-1.96s.27-1.48.27-2.25-.09-1.58-.27-2.34c-.18-.75-.46-1.42-.86-2.01-.39-.59-.91-1.06-1.55-1.41s-1.4-.53-2.31-.53-1.68.18-2.31.53-1.15.82-1.54 1.41c-.4.59-.68 1.26-.86 2.01-.18.76-.27 1.54-.27 2.34s.09 1.52.27 2.25m-3.69-6.06c.41-1.18 1-2.19 1.77-3.07.77-.87 1.72-1.55 2.84-2.06 1.12-.49 2.38-.74 3.78-.74s2.68.25 3.8.74c1.11.5 2.06 1.19 2.83 2.06s1.36 1.9 1.76 3.07c.42 1.17.62 2.44.62 3.81s-.21 2.58-.62 3.74-1 2.16-1.76 3.01-1.72 1.53-2.83 2.02c-1.12.48-2.38.73-3.8.73s-2.66-.25-3.78-.73c-1.12-.49-2.07-1.16-2.84-2.02-.77-.85-1.36-1.86-1.77-3.01-.41-1.16-.62-2.4-.62-3.74s.21-2.65.62-3.81"></path><path d="m275.65 62.56v-12.29h3.77v18.33h-4.03l-7.63-12.27h-.05v12.27h-3.77v-18.33h4.01l7.65 12.29z"></path><path d="m295.23001 50.27h4.03v18.34h-4.03z"></path><path d="m315.8 62.56v-12.29h3.77v18.33h-4.03l-7.62-12.27h-.06v12.27h-3.77v-18.33h4.01l7.65 12.29z"></path><path d="m332.03 65.21c.59 0 1.15-.09 1.7-.28s1.03-.5 1.46-.94.77-1 1.02-1.71c.26-.7.38-1.55.38-2.57 0-.92-.09-1.75-.27-2.5-.18-.74-.47-1.38-.88-1.92s-.95-.94-1.63-1.22c-.67-.28-1.51-.42-2.5-.42h-2.88v11.55h3.6zm.27-14.94c1.19 0 2.28.19 3.3.56 1.02.38 1.9.94 2.65 1.7.75.75 1.33 1.7 1.74 2.83s.63 2.46.63 3.98c0 1.34-.17 2.56-.51 3.7-.34 1.13-.86 2.1-1.55 2.93-.69.82-1.55 1.47-2.59 1.93-1.04.47-2.26.71-3.66.71h-7.91v-18.34h7.91z"></path><path d="m358.18 67.2c-1.38 1.2-3.31 1.81-5.75 1.81s-4.4-.6-5.76-1.8c-1.36-1.19-2.04-3.04-2.04-5.55v-11.4h4.03v11.4c0 .5.04.99.12 1.47.09.47.27.9.54 1.27s.65.66 1.15.89c.48.23 1.14.35 1.96.35 1.44 0 2.43-.32 2.99-.97.55-.64.82-1.65.82-3.01v-11.4h4.03v11.4c0 2.48-.69 4.32-2.08 5.54"></path><path d="m368.09 64.08c.22.43.52.78.88 1.04.37.27.8.46 1.29.59.49.12 1.01.19 1.55.19.36 0 .75-.03 1.16-.09.42-.06.8-.18 1.16-.35s.65-.41.89-.7.36-.68.36-1.15c0-.49-.15-.9-.47-1.2-.31-.3-.73-.56-1.25-.77-.51-.21-1.09-.39-1.74-.54s-1.31-.32-1.98-.51c-.68-.17-1.36-.38-2-.63-.65-.25-1.23-.57-1.75-.96-.51-.39-.93-.88-1.24-1.48-.31-.59-.47-1.31-.47-2.14 0-.94.21-1.75.61-2.46.41-.69.93-1.27 1.58-1.73s1.38-.81 2.21-1.03c.82-.22 1.64-.33 2.46-.33.96 0 1.88.11 2.76.32.88.22 1.66.56 2.35 1.04.68.47 1.22 1.09 1.63 1.83.4.75.61 1.65.61 2.71h-3.91c-.04-.55-.15-1-.35-1.36-.19-.36-.46-.64-.78-.84-.32-.21-.7-.35-1.12-.44s-.88-.13-1.37-.13c-.32 0-.65.04-.98.1-.33.07-.63.19-.89.36s-.48.39-.65.64-.26.58-.26.98c0 .36.07.65.2.87.14.22.41.43.82.62.4.18.96.38 1.67.56.71.19 1.64.43 2.79.72.34.07.82.19 1.43.37s1.21.46 1.81.86c.6.39 1.12.92 1.55 1.58.44.65.65 1.5.65 2.53 0 .83-.16 1.62-.48 2.33-.32.72-.81 1.35-1.45 1.87s-1.43.93-2.39 1.22c-.95.28-2.05.44-3.3.44-1.01 0-1.99-.12-2.94-.37s-1.78-.64-2.51-1.18-1.31-1.2-1.73-2.03c-.43-.82-.64-1.8-.62-2.92h3.9c0 .62.11 1.14.33 1.56"></path><path d="m396.53 50.27v3.39h-5.49v14.93h-4.03v-14.93h-5.49v-3.39z"></path><path d="m408.37 58.56c.92 0 1.62-.21 2.09-.62.46-.41.69-1.08.69-2s-.23-1.54-.69-1.93c-.46-.41-1.16-.61-2.09-.61h-4.42v5.16zm1.44-8.29c.82 0 1.56.13 2.22.4s1.22.63 1.7 1.09c.46.46.82 1 1.08 1.61.25.61.37 1.26.37 1.96 0 1.08-.23 2.02-.68 2.81-.46.79-1.19 1.38-2.22 1.79v.06c.49.13.91.35 1.23.63s.59.62.8 1 .36.81.46 1.27c.09.46.16.92.19 1.38.02.29.04.64.05 1.02.02.39.05.8.09 1.2.05.42.11.8.21 1.17s.24.68.43.94h-4.03c-.23-.59-.36-1.28-.42-2.09-.05-.81-.13-1.57-.23-2.31-.14-.96-.43-1.66-.87-2.1s-1.17-.66-2.18-.66h-4.03v7.16h-4.03v-18.34h9.89v.02z"></path><path d="m425.62 57.51 4.26-7.24h4.5l-6.8 11.3v7.03h-4.04v-7.14l-6.72-11.19h4.52z"></path></g></g></svg>