<?xml version="1.0" encoding="utf-8"?>
<svg xmlns="http://www.w3.org/2000/svg" version="1.1" id="圖層_2" x="0px" y="0px" enable-background="new 0 0 283.465 283.465" viewBox="0 0 726 200">
  <g id="g3" transform="matrix(1.163041, 0, 0, 1.163021, -64.840721, -38.580894)">
    <g id="g5">
      <path d="m 195.771,119.169 c 0,29.834 -24.195,54.04 -54.033,54.04 -29.844,0 -54.041,-24.205 -54.041,-54.04 0,-29.843 24.197,-54.039 54.041,-54.039 29.837,0 54.033,24.196 54.033,54.039 z" id="path7" style="fill:#00a2c7"/>
    </g>
    <g id="g9">
      <path d="m 128.071,66.452 -9.313,30.164 h -10.979 l -14.261,47.732 c 0,0 20.296,29.631 47.177,29.631 26.875,0 44.428,-23.594 47.72,-30.174 L 173.061,96.616 h -12.619 l -7.686,-31.258 c 0.001,0 -15.359,-1.65 -24.685,1.094 z" id="path11" style="fill:#03b8df"/>
    </g>
    <g id="g13">
      <path d="m 134.652,65.901 -7.12,31.271 h -8.237 l -17.007,58.693 c 0,0 18.105,18.113 37.855,18.113 19.748,0 36.21,-11.52 40.049,-18.113 L 162.083,98.807 h -8.232 l -7.679,-32.355 -11.52,-0.551 z" id="path15" style="fill:#ffffff"/>
    </g>
    <g id="g17">
      <g id="g19">
        <path d="m 104.855,157.604 c 9.761,9.641 23.173,15.605 37.978,15.605 13.888,0 26.551,-5.248 36.12,-13.877 -9.668,-7.361 -23.229,-11.971 -38.258,-11.971 -13.805,0 -26.386,3.885 -35.84,10.243 z" id="path21" style="fill:#aacf52"/>
      </g>
      <g id="g23">
        <g id="g25">
          <path d="m 140.969,126.055 c -2.963,-4.563 -9.485,-11.885 -20.9,-11.885 0,0 4.57,20.569 19.98,22.842 0,0 0.404,-0.223 0.92,-0.695 0.507,0.473 0.906,0.695 0.906,0.695 15.426,-2.272 19.998,-22.842 19.998,-22.842 -11.417,0 -17.948,7.323 -20.904,11.885 z" id="path27" style="fill:#aacf52"/>
        </g>
        <g id="g29">
          <rect x="138.5" y="132.278" width="4.9349999" height="18.107" id="rect31" style="fill:#aacf52"/>
        </g>
      </g>
    </g>
    <g id="g33">
      <path d="m 141.737,174.678 c -30.608,0 -55.511,-24.9 -55.511,-55.508 0,-30.606 24.902,-55.509 55.511,-55.509 30.603,0 55.501,24.903 55.501,55.509 0,30.607 -24.898,55.508 -55.501,55.508 z m 0,-108.078 c -28.99,0 -52.574,23.582 -52.574,52.57 0,28.987 23.584,52.571 52.574,52.571 28.985,0 52.564,-23.584 52.564,-52.571 C 194.302,90.181 170.723,66.6 141.737,66.6 z" id="path35" style="fill:#ffffff"/>
    </g>
    <g id="g37">
      <g id="g39">
        <path d="m 82.77,140.463 3.382,6.107 -0.688,0.379 c -0.131,-0.217 -0.312,-0.49 -0.542,-0.816 -0.232,-0.324 -0.421,-0.533 -0.561,-0.623 -0.236,-0.133 -0.458,-0.199 -0.67,-0.209 -0.208,-0.006 -0.434,0.057 -0.677,0.189 l -10.027,5.549 0.078,0.143 14.347,-1.803 0.273,0.488 -9.522,11.105 0.073,0.123 8.231,-4.555 c 0.794,-0.438 1.373,-0.824 1.734,-1.152 0.36,-0.332 0.571,-0.648 0.636,-0.963 0.058,-0.215 0.023,-0.58 -0.101,-1.1 -0.125,-0.512 -0.22,-0.84 -0.293,-0.98 l 0.69,-0.381 3.085,5.574 -0.686,0.377 c -0.191,-0.275 -0.41,-0.555 -0.662,-0.84 -0.247,-0.285 -0.491,-0.475 -0.732,-0.568 -0.307,-0.127 -0.672,-0.131 -1.094,-0.01 -0.423,0.129 -1.076,0.434 -1.955,0.918 l -7.058,3.904 c -0.408,0.223 -0.715,0.459 -0.919,0.697 -0.204,0.244 -0.337,0.5 -0.4,0.773 -0.062,0.299 -0.056,0.617 0.024,0.957 0.075,0.338 0.187,0.652 0.333,0.951 l -0.688,0.379 -2.602,-4.703 8.164,-9.643 -10.512,1.4 c -0.385,0.053 -0.778,0.133 -1.171,0.236 -0.397,0.105 -0.653,0.188 -0.775,0.244 l -2.49,-4.498 0.688,-0.379 c 0.109,0.174 0.262,0.391 0.471,0.639 0.206,0.252 0.369,0.43 0.485,0.535 0.2,0.172 0.41,0.25 0.634,0.227 0.228,-0.021 0.442,-0.096 0.657,-0.211 l 9.943,-5.502 c 0.226,-0.125 0.397,-0.27 0.511,-0.432 0.112,-0.161 0.163,-0.385 0.161,-0.67 0.002,-0.153 -0.054,-0.394 -0.164,-0.723 -0.111,-0.324 -0.21,-0.577 -0.301,-0.756 l 0.69,-0.377 z" id="path41"/>
      </g>
      <g id="g43">
        <path d="m 81.068,132.38 1.92,6.813 -0.756,0.218 c -0.066,-0.189 -0.169,-0.46 -0.298,-0.814 -0.133,-0.356 -0.245,-0.6 -0.344,-0.737 -0.159,-0.206 -0.335,-0.342 -0.526,-0.399 -0.187,-0.064 -0.425,-0.054 -0.711,0.023 l -10.993,3.101 c -0.247,0.07 -0.445,0.172 -0.591,0.292 -0.144,0.129 -0.232,0.353 -0.265,0.675 -0.025,0.24 -0.028,0.528 -0.013,0.876 0.017,0.344 0.045,0.621 0.092,0.83 l -0.76,0.215 -1.923,-6.815 0.763,-0.215 c 0.066,0.22 0.167,0.475 0.298,0.77 0.131,0.292 0.267,0.543 0.402,0.75 0.166,0.242 0.354,0.389 0.571,0.425 0.217,0.037 0.443,0.023 0.679,-0.043 l 10.979,-3.094 c 0.236,-0.068 0.434,-0.178 0.584,-0.333 0.152,-0.152 0.245,-0.371 0.283,-0.648 0.015,-0.166 0.009,-0.426 -0.019,-0.782 -0.026,-0.356 -0.071,-0.653 -0.129,-0.892 l 0.757,-0.216 z" id="path45"/>
      </g>
      <g id="g47">
        <path d="m 64.368,115.971 c 0.021,0.206 0.104,0.52 0.245,0.945 0.138,0.421 0.275,0.72 0.404,0.897 0.204,0.249 0.572,0.404 1.102,0.462 0.531,0.059 1.199,0.059 2.005,0.005 l 11.509,-0.798 0.064,0.954 -12.199,10.416 8.11,-0.559 c 0.907,-0.064 1.601,-0.172 2.084,-0.322 0.477,-0.146 0.81,-0.344 0.999,-0.6 0.153,-0.183 0.282,-0.544 0.382,-1.081 0.105,-0.548 0.153,-0.902 0.148,-1.074 l 0.786,-0.051 0.449,6.453 -0.786,0.054 c -0.028,-0.199 -0.125,-0.53 -0.286,-0.996 -0.161,-0.469 -0.296,-0.757 -0.41,-0.87 -0.226,-0.245 -0.552,-0.4 -0.986,-0.467 -0.43,-0.066 -1.158,-0.066 -2.187,0.007 l -7.747,0.532 c -0.337,0.024 -0.675,0.107 -1.005,0.25 -0.331,0.142 -0.583,0.317 -0.752,0.53 -0.226,0.281 -0.411,0.655 -0.555,1.124 -0.14,0.466 -0.208,0.842 -0.204,1.121 l -0.784,0.056 -0.312,-4.481 11.361,-9.661 -7.466,0.513 c -0.917,0.064 -1.616,0.172 -2.102,0.327 -0.479,0.15 -0.792,0.339 -0.941,0.571 -0.126,0.217 -0.238,0.563 -0.341,1.04 -0.099,0.477 -0.15,0.833 -0.146,1.08 l -0.784,0.05 -0.44,-6.374 0.785,-0.053 z" id="path49"/>
      </g>
      <g id="g51">
        <path d="m 80.752,107.476 -0.935,7.015 -0.78,-0.102 c 0.011,-0.201 0.028,-0.489 0.047,-0.867 0.024,-0.376 0.013,-0.645 -0.025,-0.809 -0.064,-0.253 -0.172,-0.446 -0.322,-0.58 -0.148,-0.129 -0.37,-0.217 -0.666,-0.258 l -11.316,-1.508 c -0.258,-0.034 -0.477,-0.021 -0.664,0.035 -0.18,0.06 -0.35,0.232 -0.507,0.516 -0.118,0.21 -0.241,0.473 -0.359,0.795 -0.123,0.324 -0.206,0.592 -0.247,0.801 l -0.78,-0.105 0.935,-7.015 0.778,0.103 c -0.02,0.226 -0.028,0.505 -0.024,0.823 0.006,0.322 0.032,0.605 0.075,0.846 0.047,0.292 0.167,0.497 0.353,0.619 0.187,0.121 0.399,0.2 0.64,0.23 l 11.31,1.508 c 0.24,0.032 0.464,0.006 0.664,-0.075 0.2,-0.08 0.374,-0.241 0.518,-0.481 0.082,-0.146 0.176,-0.389 0.292,-0.726 0.118,-0.339 0.193,-0.631 0.234,-0.872 l 0.779,0.107 z" id="path53"/>
      </g>
      <g id="g55">
        <path d="m 76.945,94.424 c 0.451,-0.207 0.911,-0.325 1.381,-0.342 0.466,-0.021 0.982,0.056 1.541,0.228 1.334,0.417 2.277,1.246 2.836,2.505 0.559,1.25 0.61,2.604 0.157,4.063 -0.21,0.67 -0.524,1.311 -0.95,1.915 -0.423,0.606 -0.859,1.108 -1.306,1.504 l 0.629,0.696 -0.264,0.847 -5.206,-1.457 0.264,-0.847 c 0.694,0.017 1.33,-0.008 1.915,-0.088 0.591,-0.078 1.164,-0.243 1.733,-0.494 0.533,-0.239 0.999,-0.565 1.399,-0.982 0.402,-0.415 0.707,-0.952 0.907,-1.601 0.152,-0.492 0.223,-0.941 0.206,-1.345 -0.011,-0.402 -0.099,-0.756 -0.26,-1.055 -0.166,-0.296 -0.385,-0.552 -0.664,-0.758 -0.281,-0.206 -0.627,-0.376 -1.036,-0.5 -0.599,-0.189 -1.211,-0.193 -1.837,-0.017 -0.623,0.176 -1.175,0.561 -1.652,1.149 -0.327,0.401 -0.696,0.866 -1.104,1.388 -0.413,0.524 -0.782,0.969 -1.117,1.343 -0.645,0.726 -1.349,1.233 -2.116,1.508 -0.765,0.279 -1.648,0.264 -2.643,-0.047 -0.574,-0.181 -1.07,-0.464 -1.491,-0.847 -0.425,-0.391 -0.765,-0.859 -1.018,-1.416 -0.241,-0.522 -0.378,-1.098 -0.413,-1.725 -0.037,-0.623 0.043,-1.238 0.23,-1.848 0.217,-0.692 0.522,-1.281 0.913,-1.762 0.391,-0.479 0.799,-0.902 1.222,-1.268 l -0.588,-0.662 0.266,-0.846 5.01,1.478 -0.262,0.849 c -0.621,-0.021 -1.222,-0.015 -1.805,0.017 -0.586,0.03 -1.139,0.135 -1.656,0.316 -0.507,0.176 -0.947,0.449 -1.33,0.812 -0.382,0.361 -0.668,0.862 -0.863,1.5 -0.211,0.67 -0.174,1.311 0.107,1.917 0.281,0.61 0.732,1.012 1.357,1.206 0.645,0.204 1.231,0.217 1.753,0.045 0.522,-0.167 1.01,-0.503 1.463,-0.997 0.411,-0.434 0.78,-0.876 1.117,-1.317 0.333,-0.442 0.677,-0.864 1.027,-1.265 0.318,-0.368 0.651,-0.709 1.008,-1.029 0.357,-0.32 0.737,-0.577 1.14,-0.771 z" id="path57"/>
      </g>
      <g id="g59">
        <path d="m 80.864,77.602 -0.37,0.662 c -0.269,-0.071 -0.604,-0.12 -1.003,-0.148 -0.406,-0.021 -0.804,-0.021 -1.192,0.009 -0.404,0.026 -0.782,0.09 -1.132,0.198 -0.352,0.103 -0.602,0.258 -0.754,0.451 -0.142,0.187 -0.301,0.427 -0.483,0.726 -0.185,0.296 -0.35,0.576 -0.494,0.836 l -0.318,0.563 11.002,6.164 c 0.212,0.12 0.432,0.185 0.66,0.193 0.229,0.011 0.456,-0.073 0.676,-0.245 0.114,-0.09 0.314,-0.301 0.596,-0.631 0.285,-0.327 0.494,-0.591 0.612,-0.795 l 0.688,0.387 -3.633,6.484 -0.688,-0.387 c 0.09,-0.189 0.219,-0.477 0.385,-0.868 0.169,-0.395 0.264,-0.674 0.286,-0.855 0.037,-0.258 0.002,-0.481 -0.099,-0.67 -0.103,-0.189 -0.288,-0.354 -0.55,-0.505 l -11.086,-6.215 -0.316,0.559 c -0.109,0.202 -0.247,0.456 -0.401,0.752 -0.159,0.307 -0.294,0.6 -0.415,0.887 -0.092,0.23 -0.09,0.518 0.009,0.877 0.103,0.358 0.243,0.713 0.423,1.067 0.183,0.359 0.395,0.701 0.638,1.031 0.243,0.331 0.451,0.583 0.631,0.763 l -0.384,0.684 -3.719,-2.084 6.716,-11.974 3.715,2.084 z" id="path61"/>
      </g>
      <g id="g63">
        <path d="m 101.607,71.451 -2.877,3.134 c -1.719,-0.303 -3.231,-0.539 -4.529,-0.707 -1.304,-0.166 -2.672,-0.31 -4.111,-0.426 l -1.094,1.192 3.674,3.375 c 0.191,0.174 0.385,0.298 0.584,0.37 0.202,0.073 0.428,0.049 0.684,-0.08 0.127,-0.063 0.322,-0.2 0.578,-0.415 0.26,-0.215 0.468,-0.404 0.629,-0.567 l 0.576,0.531 -4.478,4.879 -0.58,-0.533 c 0.107,-0.138 0.26,-0.344 0.455,-0.614 0.198,-0.267 0.322,-0.473 0.368,-0.606 0.077,-0.228 0.077,-0.438 0.011,-0.638 -0.073,-0.198 -0.211,-0.396 -0.424,-0.589 l -8.396,-7.71 c -0.187,-0.176 -0.38,-0.305 -0.578,-0.382 -0.198,-0.082 -0.426,-0.061 -0.686,0.068 -0.172,0.09 -0.378,0.224 -0.614,0.4 -0.239,0.178 -0.434,0.337 -0.584,0.477 l -0.576,-0.531 4.911,-5.35 c 0.449,-0.49 0.924,-0.905 1.418,-1.24 0.496,-0.339 1.016,-0.58 1.558,-0.722 0.533,-0.138 1.062,-0.146 1.601,-0.021 0.535,0.12 1.053,0.408 1.549,0.866 0.447,0.41 0.778,0.84 0.999,1.295 0.217,0.451 0.327,0.926 0.333,1.422 0.011,0.464 -0.058,0.945 -0.199,1.448 -0.146,0.503 -0.349,1.014 -0.61,1.539 1.282,0.125 2.358,0.232 3.225,0.331 0.866,0.095 1.921,0.208 3.171,0.34 0.548,0.058 0.986,0.062 1.323,0.011 0.331,-0.05 0.632,-0.125 0.909,-0.228 0.202,-0.075 0.417,-0.2 0.648,-0.378 0.232,-0.178 0.419,-0.335 0.557,-0.475 l 0.575,0.534 z M 89.018,67.81 c -0.705,-0.647 -1.444,-0.956 -2.228,-0.926 -0.784,0.03 -1.515,0.408 -2.194,1.147 l -1.282,1.396 4.972,4.565 0.99,-1.077 c 0.691,-0.752 1.024,-1.604 1.01,-2.548 -0.02,-0.946 -0.446,-1.799 -1.268,-2.557 z" id="path65"/>
      </g>
      <g id="g67">
        <path d="m 104.435,51.784 c -0.099,0.078 -0.236,0.232 -0.412,0.462 -0.172,0.23 -0.286,0.419 -0.336,0.557 -0.137,0.309 -0.221,0.535 -0.251,0.672 -0.032,0.14 -0.058,0.458 -0.071,0.962 -0.021,0.999 0,1.983 0.071,2.946 0.064,0.969 0.154,2.193 0.272,3.669 0.041,0.548 0.105,0.962 0.195,1.252 0.089,0.29 0.286,0.657 0.596,1.113 l 1.695,2.49 c 0.15,0.219 0.326,0.378 0.523,0.477 0.2,0.107 0.438,0.131 0.721,0.084 0.16,-0.041 0.434,-0.133 0.812,-0.29 0.378,-0.155 0.671,-0.294 0.877,-0.43 l 0.442,0.649 -6.082,4.144 -0.443,-0.651 c 0.162,-0.126 0.404,-0.327 0.723,-0.588 0.317,-0.267 0.523,-0.475 0.618,-0.621 0.161,-0.238 0.226,-0.468 0.193,-0.683 -0.021,-0.217 -0.111,-0.44 -0.272,-0.672 l -2.155,-3.167 c -0.07,-0.097 -0.251,-0.236 -0.546,-0.417 -0.296,-0.176 -0.633,-0.372 -1.016,-0.576 C 99.738,62.707 98.81,62.214 97.8,61.692 96.793,61.168 95.923,60.727 95.195,60.36 94.755,60.15 94.4,60.007 94.123,59.939 93.844,59.866 93.56,59.832 93.266,59.836 c -0.208,0.006 -0.434,0.056 -0.67,0.146 -0.238,0.09 -0.442,0.185 -0.617,0.284 l -0.44,-0.649 5.548,-3.781 0.444,0.648 c -0.616,0.438 -1.026,0.782 -1.23,1.031 -0.211,0.247 -0.269,0.438 -0.177,0.572 0.026,0.037 0.086,0.09 0.188,0.155 0.099,0.066 0.229,0.146 0.391,0.245 0.187,0.103 0.404,0.221 0.653,0.353 0.249,0.129 0.487,0.258 0.713,0.38 0.655,0.351 1.317,0.694 1.979,1.034 0.671,0.339 1.538,0.778 2.608,1.319 -0.088,-2.2 -0.176,-3.91 -0.26,-5.12 -0.08,-1.211 -0.179,-1.901 -0.295,-2.071 -0.096,-0.142 -0.225,-0.217 -0.389,-0.234 -0.163,-0.011 -0.344,0.013 -0.55,0.082 -0.21,0.073 -0.425,0.17 -0.643,0.297 -0.219,0.126 -0.421,0.24 -0.614,0.344 l -0.442,-0.649 4.531,-3.089 0.441,0.651 z" id="path69"/>
      </g>
      <g id="g71">
        <path d="m 126.13,45.223 c 0.863,0.511 1.621,1.211 2.272,2.097 0.653,0.881 1.146,1.925 1.476,3.124 0.336,1.207 0.445,2.356 0.331,3.446 -0.109,1.094 -0.414,2.08 -0.906,2.96 -0.473,0.87 -1.098,1.614 -1.874,2.226 -0.775,0.61 -1.656,1.055 -2.65,1.334 -1.055,0.292 -2.084,0.361 -3.09,0.215 -1.006,-0.148 -1.927,-0.488 -2.768,-1.016 -0.833,-0.511 -1.57,-1.214 -2.21,-2.101 -0.643,-0.885 -1.12,-1.895 -1.429,-3.021 -0.344,-1.233 -0.456,-2.389 -0.34,-3.463 0.118,-1.074 0.419,-2.059 0.902,-2.952 0.475,-0.885 1.104,-1.637 1.893,-2.254 0.787,-0.616 1.663,-1.059 2.63,-1.33 1.01,-0.279 2.009,-0.353 3.006,-0.219 0.999,0.131 1.916,0.449 2.757,0.954 z m 1.385,11.213 c 0.222,-0.76 0.308,-1.575 0.263,-2.447 -0.045,-0.87 -0.209,-1.813 -0.488,-2.828 -0.294,-1.044 -0.657,-1.968 -1.102,-2.784 -0.444,-0.812 -0.947,-1.474 -1.511,-1.981 -0.561,-0.499 -1.184,-0.832 -1.869,-1.005 -0.686,-0.176 -1.411,-0.159 -2.174,0.051 -0.855,0.236 -1.527,0.638 -2.018,1.195 -0.49,0.559 -0.836,1.22 -1.029,1.981 -0.185,0.726 -0.249,1.534 -0.187,2.423 0.058,0.892 0.217,1.8 0.473,2.729 0.283,1.027 0.634,1.929 1.048,2.707 0.415,0.773 0.911,1.429 1.489,1.961 0.561,0.522 1.178,0.878 1.86,1.07 0.684,0.191 1.432,0.17 2.245,-0.054 0.761,-0.213 1.401,-0.578 1.915,-1.108 0.516,-0.525 0.881,-1.163 1.085,-1.91 z" id="path73"/>
      </g>
      <g id="g75">
        <path d="m 144.999,45.825 -0.834,0.028 c -0.178,-0.578 -0.523,-1.186 -1.039,-1.833 -0.516,-0.641 -1.002,-0.991 -1.453,-1.04 -0.231,-0.021 -0.505,-0.034 -0.82,-0.039 -0.315,-0.002 -0.675,0.002 -1.072,0.017 l -2.646,0.09 0.219,6.312 1.812,-0.06 c 0.546,-0.017 0.976,-0.09 1.271,-0.215 0.303,-0.129 0.555,-0.312 0.763,-0.557 0.14,-0.169 0.267,-0.425 0.378,-0.771 0.11,-0.348 0.179,-0.722 0.204,-1.113 l 0.834,-0.025 0.213,6.183 -0.836,0.032 c -0.034,-0.325 -0.125,-0.69 -0.267,-1.102 -0.144,-0.406 -0.294,-0.705 -0.449,-0.881 -0.229,-0.267 -0.518,-0.445 -0.856,-0.533 -0.342,-0.086 -0.752,-0.125 -1.223,-0.105 l -1.813,0.062 0.187,5.417 c 0.009,0.243 0.063,0.462 0.168,0.646 0.104,0.189 0.279,0.339 0.528,0.451 0.114,0.047 0.356,0.103 0.732,0.161 0.376,0.063 0.66,0.092 0.854,0.097 l 0.025,0.784 -6.819,0.234 -0.029,-0.787 c 0.221,-0.025 0.516,-0.056 0.883,-0.103 0.367,-0.047 0.604,-0.099 0.711,-0.15 0.217,-0.107 0.374,-0.253 0.466,-0.447 0.095,-0.191 0.138,-0.421 0.127,-0.688 l -0.391,-11.365 c -0.009,-0.245 -0.054,-0.46 -0.145,-0.646 -0.086,-0.187 -0.26,-0.333 -0.523,-0.443 -0.2,-0.088 -0.471,-0.166 -0.811,-0.228 -0.335,-0.064 -0.604,-0.097 -0.806,-0.105 l -0.023,-0.789 12.347,-0.421 0.133,3.932 z" id="path77"/>
      </g>
      <g id="g79">
        <path d="m 165.766,57.579 -1.558,4.385 -12.553,-3.566 0.217,-0.756 c 0.215,0.047 0.509,0.092 0.876,0.15 0.365,0.056 0.61,0.071 0.733,0.051 0.253,-0.043 0.453,-0.135 0.591,-0.284 0.135,-0.146 0.242,-0.348 0.315,-0.612 l 3.096,-10.899 c 0.069,-0.232 0.088,-0.456 0.063,-0.655 -0.028,-0.204 -0.148,-0.402 -0.361,-0.584 -0.165,-0.148 -0.397,-0.303 -0.704,-0.466 -0.303,-0.161 -0.544,-0.279 -0.73,-0.346 l 0.213,-0.756 11.689,3.319 -1.04,3.663 -0.806,-0.232 c 0.013,-0.58 -0.131,-1.24 -0.428,-1.983 -0.301,-0.743 -0.653,-1.203 -1.063,-1.379 -0.21,-0.092 -0.468,-0.185 -0.767,-0.288 -0.306,-0.104 -0.646,-0.207 -1.038,-0.318 l -2.374,-0.674 -1.703,6.005 1.699,0.483 c 0.543,0.155 0.958,0.215 1.237,0.187 0.281,-0.037 0.55,-0.148 0.81,-0.335 0.215,-0.166 0.426,-0.402 0.637,-0.72 0.208,-0.316 0.373,-0.619 0.496,-0.919 l 0.806,0.228 -1.691,5.956 -0.803,-0.228 c 0.066,-0.348 0.094,-0.735 0.075,-1.147 -0.014,-0.417 -0.064,-0.73 -0.148,-0.941 -0.14,-0.339 -0.34,-0.593 -0.596,-0.761 -0.253,-0.163 -0.612,-0.309 -1.074,-0.442 l -1.699,-0.481 -1.293,4.546 c -0.129,0.456 -0.198,0.825 -0.206,1.108 -0.014,0.277 0.054,0.511 0.201,0.698 0.148,0.189 0.37,0.348 0.68,0.479 0.307,0.129 0.758,0.275 1.349,0.443 0.23,0.068 0.539,0.154 0.924,0.262 0.383,0.112 0.707,0.191 0.982,0.234 0.274,0.049 0.566,0.075 0.876,0.084 0.31,0.004 0.542,-0.039 0.698,-0.133 0.424,-0.245 0.913,-0.666 1.47,-1.261 0.555,-0.595 0.928,-1.04 1.124,-1.338 l 0.778,0.223 z" id="path81"/>
      </g>
      <g id="g83">
        <path d="m 182.268,63.141 c -0.67,1.163 -1.472,2.041 -2.401,2.641 -0.929,0.6 -1.899,0.969 -2.913,1.108 -1.017,0.14 -2.046,0.088 -3.077,-0.152 -1.033,-0.236 -2.018,-0.627 -2.949,-1.169 l -5.648,-3.27 0.396,-0.679 c 0.187,0.107 0.44,0.228 0.758,0.37 0.32,0.133 0.539,0.206 0.662,0.219 0.238,0.03 0.451,-0.013 0.632,-0.127 0.18,-0.114 0.339,-0.281 0.47,-0.516 l 5.702,-9.842 c 0.127,-0.219 0.204,-0.434 0.228,-0.651 0.028,-0.217 -0.04,-0.436 -0.201,-0.668 -0.143,-0.215 -0.318,-0.408 -0.526,-0.586 -0.207,-0.183 -0.39,-0.327 -0.551,-0.436 l 0.396,-0.679 5.958,3.45 c 0.82,0.473 1.553,1.068 2.204,1.783 0.645,0.713 1.139,1.452 1.482,2.226 0.469,1.031 0.662,2.142 0.584,3.326 -0.08,1.19 -0.484,2.406 -1.206,3.652 z m -2.346,-1.367 c 0.53,-0.915 0.885,-1.813 1.07,-2.69 0.185,-0.881 0.201,-1.729 0.054,-2.552 -0.138,-0.778 -0.44,-1.506 -0.911,-2.178 -0.469,-0.675 -1.096,-1.242 -1.887,-1.697 -0.262,-0.15 -0.559,-0.318 -0.896,-0.499 -0.338,-0.181 -0.585,-0.314 -0.748,-0.402 L 170.54,62.23 c -0.336,0.58 -0.4,1.083 -0.191,1.5 0.213,0.421 0.668,0.838 1.375,1.246 0.812,0.468 1.604,0.739 2.383,0.804 0.773,0.06 1.495,-0.052 2.17,-0.346 0.709,-0.307 1.359,-0.763 1.95,-1.362 0.59,-0.602 1.156,-1.365 1.695,-2.298 z" id="path85"/>
      </g>
      <g id="g87">
        <path d="m 201.077,71.307 c -0.15,-0.14 -0.401,-0.325 -0.738,-0.552 -0.342,-0.224 -0.66,-0.374 -0.952,-0.434 -0.299,-0.064 -0.675,0.063 -1.119,0.372 -0.445,0.305 -0.943,0.73 -1.489,1.276 l -4.857,4.832 c -0.619,0.619 -1.285,1.022 -1.998,1.22 -0.713,0.2 -1.422,0.232 -2.134,0.107 -0.695,-0.138 -1.336,-0.37 -1.916,-0.705 -0.58,-0.337 -1.076,-0.713 -1.493,-1.132 -0.666,-0.67 -1.175,-1.358 -1.521,-2.056 -0.344,-0.7 -0.545,-1.375 -0.602,-2.028 -0.047,-0.653 0.032,-1.259 0.239,-1.822 0.21,-0.559 0.521,-1.048 0.94,-1.469 l 6.611,-6.572 c 0.183,-0.181 0.305,-0.367 0.369,-0.548 0.063,-0.183 0.054,-0.419 -0.025,-0.709 -0.057,-0.204 -0.168,-0.434 -0.327,-0.686 -0.163,-0.249 -0.301,-0.444 -0.421,-0.586 l 0.559,-0.554 4.596,4.619 -0.557,0.554 c -0.15,-0.135 -0.354,-0.296 -0.616,-0.473 -0.263,-0.18 -0.462,-0.301 -0.6,-0.367 -0.236,-0.118 -0.46,-0.127 -0.666,-0.043 -0.209,0.086 -0.397,0.217 -0.571,0.393 l -6.173,6.14 c -0.301,0.296 -0.578,0.643 -0.845,1.036 -0.262,0.391 -0.436,0.825 -0.526,1.302 -0.083,0.494 -0.043,1.01 0.125,1.545 0.172,0.537 0.563,1.115 1.175,1.729 0.58,0.584 1.156,0.979 1.728,1.19 0.578,0.212 1.126,0.279 1.65,0.208 0.5,-0.064 0.951,-0.206 1.347,-0.425 0.404,-0.217 0.759,-0.483 1.076,-0.797 l 4.583,-4.559 c 0.582,-0.58 1.017,-1.096 1.302,-1.547 0.286,-0.453 0.406,-0.818 0.361,-1.098 -0.052,-0.312 -0.198,-0.666 -0.442,-1.06 -0.245,-0.391 -0.443,-0.674 -0.598,-0.853 l 0.559,-0.555 4.526,4.551 -0.56,0.556 z" id="path89"/>
      </g>
      <g id="g91">
        <path d="m 193.762,88.542 c -0.477,-0.806 -0.781,-1.672 -0.904,-2.6 -0.124,-0.926 -0.056,-1.854 0.2,-2.782 0.262,-0.917 0.72,-1.805 1.381,-2.656 0.66,-0.849 1.532,-1.596 2.613,-2.243 1.078,-0.645 2.156,-1.066 3.235,-1.264 1.076,-0.197 2.105,-0.197 3.087,0.007 0.978,0.2 1.867,0.591 2.682,1.171 0.812,0.576 1.486,1.314 2.02,2.208 0.393,0.662 0.675,1.313 0.836,1.946 0.158,0.636 0.236,1.285 0.229,1.951 l 0.881,0.002 0.458,0.763 -4.762,2.96 -0.47,-0.782 c 0.408,-0.378 0.824,-0.833 1.25,-1.362 0.428,-0.531 0.748,-1.046 0.965,-1.545 0.251,-0.556 0.374,-1.122 0.369,-1.682 -0.011,-0.563 -0.17,-1.113 -0.492,-1.65 -0.367,-0.61 -0.844,-1.1 -1.435,-1.465 -0.587,-0.365 -1.264,-0.576 -2.028,-0.64 -0.734,-0.06 -1.56,0.043 -2.481,0.309 -0.917,0.271 -1.867,0.694 -2.847,1.281 -0.866,0.52 -1.592,1.102 -2.188,1.751 -0.591,0.649 -1.037,1.338 -1.343,2.069 -0.303,0.73 -0.438,1.461 -0.41,2.196 0.02,0.735 0.238,1.444 0.646,2.123 0.308,0.514 0.669,0.933 1.085,1.268 0.417,0.331 0.857,0.578 1.313,0.73 0.468,0.15 0.951,0.236 1.452,0.262 0.5,0.026 1.005,-0.009 1.517,-0.107 l 0.088,0.924 c -1.669,0.253 -3.055,0.107 -4.166,-0.451 -1.107,-0.557 -2.037,-1.453 -2.781,-2.692 z" id="path93"/>
      </g>
      <g id="g95">
        <path d="m 201.986,108.361 -1.979,-6.23 0.75,-0.236 c 0.21,0.537 0.425,0.971 0.648,1.297 0.217,0.333 0.406,0.473 0.563,0.421 0.064,-0.018 0.138,-0.052 0.229,-0.093 0.086,-0.043 0.163,-0.092 0.221,-0.144 l 2.974,-2.314 -1.68,-5.296 c -0.559,-0.041 -1.04,-0.067 -1.45,-0.073 -0.406,-0.006 -0.78,-0.013 -1.12,-0.013 -0.333,0.004 -0.602,0.019 -0.801,0.045 -0.204,0.024 -0.367,0.058 -0.485,0.097 -0.284,0.09 -0.43,0.378 -0.445,0.876 -0.017,0.49 0.052,1.021 0.202,1.586 l -0.75,0.24 -1.792,-5.642 0.752,-0.241 c 0.071,0.181 0.186,0.397 0.34,0.649 0.152,0.256 0.315,0.453 0.483,0.595 0.281,0.217 0.552,0.376 0.806,0.466 0.258,0.09 0.593,0.15 1.008,0.18 2.127,0.155 4.507,0.318 7.147,0.481 2.641,0.161 4.991,0.309 7.056,0.438 l 0.267,0.851 -11.372,9.122 c -0.24,0.189 -0.423,0.382 -0.55,0.569 -0.131,0.189 -0.236,0.428 -0.32,0.72 -0.047,0.196 -0.064,0.432 -0.047,0.715 0.015,0.282 0.045,0.514 0.095,0.69 l -0.75,0.244 z m 4.229,-7.984 5.132,-4.151 -6.574,-0.391 1.442,4.542 z" id="path97"/>
      </g>
      <g id="g99">
        <path d="m 214.183,120.075 -0.06,-0.752 c 0.258,-0.093 0.564,-0.236 0.915,-0.438 0.351,-0.202 0.679,-0.428 0.984,-0.671 0.322,-0.247 0.599,-0.516 0.833,-0.795 0.232,-0.285 0.356,-0.548 0.374,-0.797 0.011,-0.231 0.009,-0.521 -0.004,-0.87 -0.011,-0.348 -0.032,-0.672 -0.054,-0.971 l -0.052,-0.641 -12.568,1.006 c -0.243,0.021 -0.464,0.09 -0.657,0.213 -0.196,0.118 -0.338,0.315 -0.428,0.577 -0.041,0.138 -0.088,0.426 -0.145,0.859 -0.051,0.433 -0.075,0.766 -0.064,1.004 l -0.781,0.06 -0.594,-7.41 0.782,-0.06 c 0.032,0.202 0.086,0.514 0.161,0.937 0.08,0.417 0.159,0.705 0.238,0.861 0.114,0.236 0.269,0.402 0.458,0.505 0.191,0.1 0.438,0.138 0.741,0.11 l 12.665,-1.014 -0.05,-0.643 c -0.021,-0.228 -0.047,-0.511 -0.086,-0.847 -0.038,-0.339 -0.086,-0.662 -0.147,-0.969 -0.048,-0.238 -0.215,-0.479 -0.499,-0.72 -0.279,-0.241 -0.595,-0.458 -0.945,-0.653 -0.348,-0.193 -0.715,-0.358 -1.102,-0.498 -0.385,-0.142 -0.701,-0.232 -0.95,-0.279 l -0.063,-0.782 4.248,-0.344 1.098,13.681 -4.248,0.341 z" id="path101"/>
      </g>
      <g id="g103">
        <path d="m 201.716,128.83 0.704,-7.047 0.784,0.079 c -0.006,0.202 -0.013,0.49 -0.019,0.868 -0.011,0.374 0.008,0.648 0.051,0.806 0.069,0.253 0.183,0.44 0.338,0.569 0.156,0.124 0.38,0.206 0.675,0.236 l 11.362,1.139 c 0.256,0.025 0.476,0.006 0.655,-0.059 0.186,-0.064 0.351,-0.238 0.497,-0.528 0.111,-0.208 0.223,-0.483 0.333,-0.806 0.111,-0.331 0.185,-0.6 0.219,-0.812 l 0.784,0.079 -0.707,7.045 -0.779,-0.077 c 0.013,-0.229 0.013,-0.508 -0.005,-0.823 -0.015,-0.32 -0.049,-0.604 -0.097,-0.847 -0.063,-0.288 -0.188,-0.492 -0.376,-0.604 -0.188,-0.118 -0.406,-0.185 -0.646,-0.215 l -11.353,-1.132 c -0.245,-0.028 -0.466,0.006 -0.666,0.092 -0.195,0.091 -0.365,0.256 -0.5,0.499 -0.073,0.15 -0.166,0.395 -0.271,0.738 -0.103,0.344 -0.172,0.632 -0.201,0.875 l -0.782,-0.075 z" id="path105"/>
      </g>
      <g id="g107">
        <path d="m 211.304,146.592 c -0.896,0.449 -1.895,0.711 -2.992,0.783 -1.096,0.068 -2.236,-0.08 -3.427,-0.445 -1.194,-0.371 -2.222,-0.9 -3.079,-1.586 -0.857,-0.688 -1.525,-1.473 -2,-2.365 -0.473,-0.866 -0.759,-1.794 -0.859,-2.782 -0.097,-0.979 0.004,-1.962 0.313,-2.943 0.322,-1.051 0.818,-1.955 1.487,-2.72 0.668,-0.77 1.452,-1.36 2.348,-1.777 0.886,-0.423 1.874,-0.664 2.965,-0.726 1.092,-0.063 2.196,0.081 3.319,0.432 1.223,0.376 2.252,0.906 3.092,1.585 0.842,0.677 1.506,1.466 1.998,2.351 0.485,0.881 0.777,1.817 0.874,2.814 0.091,0.995 -0.008,1.973 -0.307,2.931 -0.312,1.001 -0.791,1.882 -1.439,2.65 -0.65,0.769 -1.416,1.364 -2.293,1.798 z m -10.179,-4.893 c 0.52,0.595 1.16,1.114 1.916,1.543 0.757,0.436 1.638,0.809 2.641,1.115 1.033,0.322 2.011,0.516 2.939,0.58 0.924,0.066 1.753,0.002 2.479,-0.199 0.723,-0.201 1.346,-0.543 1.863,-1.027 0.516,-0.484 0.892,-1.099 1.13,-1.858 0.26,-0.849 0.29,-1.631 0.086,-2.342 -0.208,-0.716 -0.578,-1.362 -1.108,-1.94 -0.516,-0.543 -1.16,-1.035 -1.942,-1.465 -0.782,-0.434 -1.631,-0.791 -2.55,-1.076 -1.021,-0.318 -1.966,-0.512 -2.845,-0.582 -0.877,-0.069 -1.695,-0.009 -2.456,0.193 -0.736,0.188 -1.375,0.516 -1.903,0.988 -0.53,0.473 -0.922,1.11 -1.167,1.914 -0.238,0.758 -0.272,1.493 -0.109,2.211 0.165,0.717 0.504,1.367 1.026,1.945 z" id="path109"/>
      </g>
      <g id="g111">
        <path d="m 200.854,167.287 c 0.104,-0.182 0.228,-0.48 0.362,-0.906 0.138,-0.422 0.207,-0.74 0.209,-0.963 -0.013,-0.326 -0.217,-0.67 -0.61,-1.025 -0.391,-0.363 -0.931,-0.758 -1.609,-1.197 l -9.728,-6.193 0.511,-0.809 16,-1.129 -6.856,-4.367 c -0.767,-0.486 -1.39,-0.816 -1.864,-0.98 -0.473,-0.166 -0.859,-0.205 -1.165,-0.115 -0.226,0.055 -0.543,0.271 -0.947,0.645 -0.408,0.377 -0.659,0.635 -0.758,0.777 l -0.664,-0.426 3.479,-5.457 0.661,0.422 c -0.097,0.178 -0.219,0.502 -0.363,0.975 -0.146,0.471 -0.208,0.781 -0.183,0.941 0.032,0.33 0.207,0.65 0.512,0.959 0.308,0.311 0.896,0.744 1.764,1.297 l 6.549,4.17 c 0.285,0.184 0.605,0.316 0.956,0.398 0.35,0.084 0.661,0.088 0.924,0.023 0.348,-0.096 0.718,-0.285 1.108,-0.578 0.396,-0.289 0.668,-0.549 0.834,-0.779 l 0.663,0.424 -2.412,3.785 -14.878,1.025 6.314,4.021 c 0.773,0.494 1.4,0.82 1.877,0.988 0.478,0.16 0.845,0.195 1.101,0.094 0.229,-0.096 0.524,-0.309 0.89,-0.633 0.365,-0.322 0.616,-0.584 0.76,-0.779 l 0.664,0.42 -3.436,5.395 -0.665,-0.423 z" id="path113"/>
      </g>
    </g>
    <g id="g115">
      <path d="m 141.74,205.139 c -47.414,0 -85.989,-38.568 -85.989,-85.977 0,-47.414 38.575,-85.989 85.989,-85.989 47.405,0 85.974,38.575 85.974,85.989 0,47.408 -38.568,85.977 -85.974,85.977 z m 0,-170.647 c -46.688,0 -84.67,37.982 -84.67,84.67 0,46.68 37.982,84.659 84.67,84.659 46.679,0 84.654,-37.979 84.654,-84.659 0.001,-46.688 -37.975,-84.67 -84.654,-84.67 z" id="path117"/>
    </g>
    <g id="g119">
      <g id="g121">
        <path d="m 105.401,166.084 0.761,0.447 c 0.552,0.586 0.477,1.279 -0.228,2.08 l 2.543,1.693 c 0.263,0.154 0.316,0.471 0.157,0.947 l 1.821,-0.832 0.449,0.266 c 0.252,1.055 -1.23,2.086 -4.445,3.094 l 1.448,0.969 c -0.494,1.289 -1.366,1.438 -2.612,0.441 l -1.182,-0.773 -2.664,0.336 4.592,2.779 c 0.563,0.748 -0.028,1.088 -1.773,1.02 l -3.381,0.494 0.217,1.873 2.639,1.166 c 0.246,1.156 -0.729,1.268 -2.925,0.338 l -0.129,0.234 c -0.274,1.158 -1.076,2.514 -2.401,4.063 -2.091,1.125 -4.259,0.576 -6.499,-1.65 l 0.292,-2.547 0.234,-0.018 2.007,1.648 c 1.658,0.871 2.876,0.746 3.652,-0.377 l 1.007,-1.736 c -0.908,-0.379 -3.47,-0.955 -7.681,-1.725 -0.436,-0.205 -0.625,-0.473 -0.571,-0.803 l 0.428,-0.799 c 0.05,-0.824 1.676,-0.631 4.881,0.586 l 3.498,1.086 c 0.236,-0.117 -0.021,-1.178 -0.777,-3.18 l 0.221,-0.41 0.265,-0.08 c 0.326,0.039 0.724,0.428 1.192,1.17 l 2.238,-0.508 0.063,-0.117 c -1.785,-1.648 -4.239,-2.588 -7.356,-2.816 l -1.112,-0.344 c -0.782,-0.617 -1.142,-1.516 -1.077,-2.695 l 0.269,-0.5 c 0.123,-0.135 0.669,0.186 1.638,0.963 1.54,1.088 3.726,1.531 6.555,1.334 l 0.208,-0.111 -4.232,-2.414 -1.931,-0.826 -0.318,-0.65 0.335,-0.621 c 0.419,-0.322 0.821,-0.449 1.203,-0.379 0.329,0.402 2.039,1.41 5.131,3.021 l 1.123,-2.371 -3.744,-1.66 -0.145,-0.629 0.333,-0.619 1.027,-0.326 3.274,1.85 0.93,-1.316 0.552,-0.066 z m -0.283,3.914 -1.496,2.227 0.875,0.514 c 1.022,-0.199 2.111,-0.568 3.268,-1.105 l -0.025,-0.092 -2.622,-1.544 z m 9.103,10.68 0.704,0.416 c 0.623,0.314 0.026,1.428 -1.791,3.334 -0.608,0.859 -1.777,1.998 -3.504,3.414 0.666,2.311 1.848,4.303 3.547,5.973 l 0.981,1.006 c -0.437,1.271 -1.968,1.289 -4.593,0.055 -0.562,-0.201 -1.236,-2.191 -2.026,-5.971 l -0.056,-0.035 c -0.818,0.371 -2.078,0.668 -3.777,0.885 -0.552,0.014 -1.121,-0.102 -1.706,-0.344 -0.956,-0.666 -1.375,-1.818 -1.259,-3.461 l 0.381,-0.709 0.158,-0.021 c 1.756,1.475 3.722,1.893 5.894,1.256 l -0.537,-5.561 0.238,-0.443 c 0.281,-0.248 0.526,-0.311 0.732,-0.191 l 0.563,0.334 c 0.193,0.01 0.344,0.811 0.453,2.402 l 0.453,2.676 c 1.289,-0.508 2.868,-2.156 4.735,-4.943 l 0.41,-0.072 z m 0.696,-7.787 0.618,0.363 c 0.456,0.58 -0.346,1.521 -2.403,2.822 l 1.488,1.031 5.446,3.051 c -0.228,1.342 -0.988,1.658 -2.288,0.945 0.045,-0.182 -1.54,-1.139 -4.761,-2.881 l -1.878,-0.719 -1.588,0.814 c -1.046,-0.307 -1.555,-1.111 -1.525,-2.412 l 0.286,-0.531 c 1.812,0.315 4.011,-0.513 6.605,-2.483 z" id="path123"/>
      </g>
      <g id="g125">
        <path d="m 142.693,177.002 h 0.927 c 0.859,-0.045 1.003,1.029 0.43,3.223 l 10.71,-0.066 2.908,-0.166 c 0.662,0.951 -0.154,1.885 -2.446,2.791 l -7.041,-0.664 2.415,3.559 c 0.064,0.84 -0.312,1.217 -1.126,1.129 l -8.46,0.064 c -0.024,-0.176 -1.268,-0.176 -3.736,0 -0.859,0.199 -1.477,0.045 -1.85,-0.463 v -0.666 c -0.179,-0.244 0.747,-0.953 2.775,-2.127 l 1.652,-1.695 c -1.366,-0.088 -4.463,0.156 -9.288,0.732 -0.64,0.287 -1.3,0.221 -1.982,-0.201 l -0.134,-0.865 1.025,-1.029 c 0.045,0.133 2.236,0.066 6.578,-0.199 l 6.28,-0.133 -0.462,-2.193 v -0.201 c 0.132,-0.51 0.409,-0.787 0.825,-0.83 z m 7.241,11.301 h 0.761 c 0.793,-0.045 0.793,1.186 0,3.688 l -0.066,4.852 c 0.265,0.711 0.265,1.842 0,3.393 -1.676,0.818 -2.313,-0.311 -1.916,-3.393 -3.285,-0.154 -7.075,0 -11.372,0.467 -1.366,2.039 -3.371,3.125 -6.016,3.258 -1.19,-0.4 -2.148,-1.143 -2.877,-2.229 v -0.629 c 0,-0.223 0.342,-0.289 1.025,-0.201 1.454,0.088 3.173,-0.186 5.156,-0.83 2.07,-0.664 2.677,-3.244 1.817,-7.744 l 0.496,-0.498 c 0.045,0.154 1.554,0.154 4.529,0 l 7.801,0.031 0.662,-0.165 z m -1.091,5.051 -10.545,0.467 -0.231,1.494 10.646,0.066 0.13,-2.027 z m -6.843,-3.391 -3.568,0.4 -0.067,1.428 10.545,0.066 v -1.629 l -0.331,-0.266 H 142 z m 0.761,-8.043 c -0.771,0.82 -2.061,1.816 -3.867,2.99 v 0.066 c 1.123,0.555 4.054,0.555 8.791,0 l 0.066,-0.33 -1.948,-2.66 -3.042,-0.066 z" id="path127"/>
      </g>
      <g id="g129">
        <path d="m 173.906,177.201 0.578,-0.461 c 0.645,-0.467 1.241,0.377 1.792,2.531 l 0.154,0.182 2.17,-1.891 c 0.935,0.184 1.119,0.756 0.552,1.715 l -4.213,3.293 c -0.935,0.547 -2.847,2.24 -5.734,5.08 -0.313,0.15 -0.556,0.156 -0.726,0.014 l -0.381,-0.449 c -0.163,-0.498 -0.09,-0.922 0.213,-1.268 0.361,-0.184 1.264,-0.908 2.714,-2.17 0.073,-0.158 -0.467,-0.445 -1.62,-0.859 l -0.943,-0.566 c -0.079,-0.338 -0.023,-0.611 0.168,-0.814 l 0.672,-0.537 c 0.34,-0.549 1.212,0.039 2.615,1.762 l 0.105,0.217 3.362,-2.689 -1.595,-2.578 0.117,-0.512 z m -5.772,-1.726 0.627,-0.502 c 0.578,-0.514 1.302,0.102 2.179,1.844 l 3.674,-3.012 c 0.951,0.822 0.818,1.598 -0.408,2.326 l -6.237,4.992 -1.355,1.387 -0.623,0.043 -0.399,-0.473 c -0.123,-0.453 -0.093,-0.832 0.095,-1.133 0.55,-0.238 1.848,-1.277 3.895,-3.117 l -1.617,-1.273 c -0.173,-0.446 -0.117,-0.805 0.169,-1.082 z m 3.927,11.138 c 0.152,-0.248 0.746,-0.57 1.781,-0.971 l 4.469,-3.5 c 0.058,-0.299 0.308,-0.574 0.743,-0.822 0.51,-0.408 1.484,0.563 2.924,2.91 l 1.523,1.805 c 0.43,0.387 0.413,0.842 -0.052,1.367 -0.165,-0.197 -2.023,1.236 -5.572,4.305 l -1.045,0.836 -0.5,-0.09 c 0.113,-0.141 -0.797,-1.264 -2.73,-3.369 l -1.67,-1.838 0.129,-0.633 z m 2.415,0.147 c -0.505,0.201 -0.272,0.811 0.689,1.828 l 1.56,1.848 0.583,-0.047 3.56,-2.961 0.823,-0.545 c 0.333,-0.221 -0.222,-1.119 -1.668,-2.713 l -0.702,-0.832 c -0.229,-0.271 -1.465,0.566 -3.708,2.514 l -1.137,0.908 z m 1.65,-15.49 6.84,-5.475 c 1.292,-0.375 1.62,0.859 0.991,3.705 l -0.086,1.691 c 0.038,0.17 0.543,0.17 1.515,-0.002 2.191,-0.041 3.62,0.73 4.286,2.314 0.666,2.264 -0.476,4.475 -3.421,6.631 l 2.938,3.203 c 0.312,0.432 0.427,0.904 0.346,1.422 -0.449,0.664 -1.022,0.707 -1.717,0.129 -0.561,-0.787 -3.523,-4.295 -8.891,-10.531 l -1.678,-1.758 c -0.12,0.35 -0.46,0.545 -1.021,0.588 l -0.559,-0.57 c -0.175,-0.361 -0.024,-0.81 0.457,-1.347 z m 2.363,0.037 6.657,7.52 c 1.313,-0.9 2.211,-2.059 2.696,-3.48 l 0.048,-1.096 -0.574,-0.865 c -0.582,-0.566 -1.608,-0.676 -3.08,-0.33 -0.245,-0.107 -0.645,0.477 -1.199,1.754 -0.269,0.264 -0.544,0.322 -0.827,0.17 l -0.383,-0.451 0.239,-5.934 -0.168,-0.016 -3.409,2.728 z" id="path131"/>
      </g>
    </g>
  </g>
  <g transform="matrix(0.78029, 0, 0, 0.78029, 70.532997, -99.812958)" style="">
    <path d="M 316.235 203.484 C 315.7 204.411 314.916 205.107 313.881 205.588 C 312.847 206.069 311.563 206.337 310.03 206.408 C 308.46 206.48 306.962 206.462 305.536 206.364 C 304.109 206.266 302.754 206.088 301.471 205.838 C 300.187 205.588 299.063 205.392 298.1 205.258 C 297.137 205.124 296.335 205.053 295.693 205.053 L 294.908 210.474 L 294.124 215.895 C 294.766 215.788 295.533 215.735 296.415 215.735 C 297.298 215.735 298.296 215.788 299.402 215.895 C 300.472 216.002 301.631 216.073 302.879 216.109 C 304.127 216.145 305.464 216.145 306.891 216.109 C 308.317 216.038 309.602 215.788 310.734 215.36 C 311.866 214.932 312.847 214.326 313.667 213.541 C 314.523 212.792 315.254 211.972 315.869 211.071 C 316.485 210.171 316.984 209.19 317.376 208.12 C 317.875 207.871 318.428 207.71 319.034 207.621 C 319.641 207.532 320.3 207.514 321.014 207.549 C 321.727 207.621 322.351 207.853 322.904 208.245 C 323.456 208.637 323.938 209.19 324.366 209.903 C 324.722 210.617 324.919 211.33 324.946 212.043 C 324.972 212.756 324.83 213.47 324.509 214.183 C 324.188 214.896 323.831 215.52 323.421 216.064 C 323.011 216.608 322.547 217.072 322.012 217.464 C 322.761 217.322 323.688 217.215 324.767 217.143 C 325.846 217.072 327.076 217.036 328.432 217.036 C 329.751 217.036 331.053 217.214 332.31 217.571 C 333.567 217.927 334.78 218.462 335.921 219.176 C 337.098 219.889 337.918 220.709 338.4 221.645 C 338.881 222.582 339.023 223.634 338.845 224.81 C 338.631 225.952 338.292 227.075 337.811 228.172 C 337.329 229.268 336.705 230.338 335.921 231.372 C 334.78 232.157 333.478 232.817 332.025 233.361 C 330.571 233.904 328.966 234.332 327.219 234.653 C 325.471 234.974 323.563 235.117 321.504 235.081 C 319.444 235.046 317.233 234.832 314.88 234.439 C 312.49 234.047 310.226 233.708 308.095 233.423 C 305.964 233.138 303.966 232.906 302.112 232.728 C 300.222 232.514 298.492 232.425 296.914 232.46 C 295.336 232.496 293.91 232.657 292.626 232.942 C 292.091 232.942 291.502 232.96 290.852 232.986 C 290.201 233.013 289.487 233.049 288.703 233.084 C 287.954 233.156 287.134 233.245 286.26 233.343 C 285.386 233.441 284.459 233.548 283.496 233.655 C 282.533 233.798 281.642 233.922 280.831 234.029 C 280.019 234.136 279.288 234.226 278.646 234.297 C 278.004 234.333 277.433 234.368 276.925 234.395 C 276.417 234.421 275.971 234.439 275.579 234.439 C 275.686 236.009 275.597 237.952 275.303 240.279 C 275.009 242.606 274.509 245.317 273.796 248.419 C 273.083 251.486 271.906 254.749 270.239 258.2 C 268.572 261.65 266.414 265.288 263.739 269.104 C 261.1 272.92 258.407 276.13 255.644 278.742 C 252.88 281.355 250.044 283.37 247.12 284.796 C 244.231 286.187 241.539 287.203 239.051 287.845 C 236.564 288.487 234.281 288.754 232.213 288.647 C 232.106 288.505 231.945 288.362 231.749 288.202 C 231.553 288.041 231.321 287.863 231.072 287.649 C 230.822 287.471 230.537 287.257 230.243 286.998 C 229.948 286.739 229.645 286.436 229.36 286.079 C 229.003 285.794 228.718 285.473 228.495 285.152 C 228.272 284.832 228.112 284.511 228.005 284.225 C 227.862 283.869 227.755 283.565 227.684 283.28 C 227.612 282.995 227.577 282.727 227.577 282.442 C 227.969 281.408 228.557 280.427 229.36 279.491 C 230.162 278.555 231.179 277.663 232.427 276.807 C 233.639 275.987 235.102 275.167 236.814 274.338 C 238.525 273.508 240.487 272.67 242.698 271.814 C 244.873 270.958 246.888 270.031 248.725 269.006 C 250.562 267.98 252.22 266.857 253.682 265.609 C 255.18 264.397 256.464 263.131 257.534 261.811 C 258.604 260.492 259.459 259.119 260.101 257.692 C 260.351 257.05 260.636 256.337 260.957 255.561 C 261.278 254.785 261.635 253.947 262.027 253.055 C 262.419 252.164 262.812 251.183 263.195 250.14 C 263.578 249.097 263.953 247.992 264.31 246.85 C 264.702 245.709 265.023 244.604 265.282 243.56 C 265.54 242.517 265.736 241.537 265.879 240.645 C 266.021 239.754 266.128 238.915 266.2 238.14 C 266.271 237.364 266.307 236.651 266.307 236.009 C 265.772 236.009 265.183 236.063 264.541 236.161 C 263.899 236.259 263.204 236.401 262.455 236.579 C 261.67 236.793 260.815 237.061 259.905 237.382 C 258.996 237.703 258.033 238.077 257.034 238.505 C 255.964 238.969 254.984 239.397 254.083 239.789 C 253.183 240.181 252.362 240.538 251.614 240.859 C 250.829 241.18 250.116 241.448 249.465 241.67 C 248.814 241.893 248.226 242.072 247.691 242.214 C 247.441 241.965 247.155 241.679 246.834 241.358 C 246.513 241.037 246.157 240.681 245.765 240.288 C 245.372 239.896 244.998 239.468 244.641 239.013 C 244.285 238.559 243.946 238.077 243.625 237.578 C 243.304 237.043 243.072 236.562 242.921 236.116 C 242.769 235.67 242.698 235.26 242.698 234.867 C 242.698 234.475 242.734 234.119 242.796 233.798 C 242.859 233.477 242.948 233.192 243.055 232.942 C 243.447 231.658 244.053 230.374 244.865 229.108 C 245.676 227.842 246.692 226.593 247.905 225.381 C 249.117 224.133 250.615 223.045 252.389 222.109 C 254.163 221.173 256.214 220.388 258.532 219.746 C 260.85 219.104 263.025 218.569 265.058 218.15 C 267.091 217.731 268.981 217.428 270.729 217.25 C 272.476 217.072 274.01 216.858 275.329 216.626 C 276.649 216.394 277.754 216.144 278.646 215.895 C 278.788 215.895 278.931 215.895 279.065 215.895 C 279.199 215.895 279.324 215.895 279.431 215.895 C 279.573 215.895 279.698 215.895 279.823 215.895 C 279.948 215.895 280.072 215.895 280.215 215.895 C 280.358 215.895 280.483 215.895 280.608 215.895 C 280.733 215.895 280.857 215.895 281 215.895 C 281.107 215.895 281.232 215.895 281.365 215.895 C 281.499 215.895 281.642 215.895 281.785 215.895 L 281.785 209.689 L 281.785 203.484 C 281 203.484 280.144 203.502 279.208 203.537 C 278.272 203.573 277.255 203.626 276.15 203.698 C 275.044 203.769 273.867 203.859 272.61 203.983 C 271.353 204.108 270.015 204.268 268.589 204.482 C 267.162 204.66 265.825 204.857 264.577 205.053 C 263.329 205.249 262.17 205.445 261.1 205.624 C 259.994 205.838 258.978 206.016 258.042 206.177 C 257.105 206.337 256.249 206.479 255.465 206.622 C 255.322 206.479 255.18 206.355 255.046 206.23 C 254.913 206.105 254.788 205.98 254.681 205.838 C 254.538 205.695 254.431 205.57 254.342 205.445 C 254.253 205.32 254.181 205.195 254.11 205.053 C 254.038 204.91 253.985 204.786 253.949 204.661 C 253.914 204.536 253.896 204.411 253.896 204.268 C 253.896 204.161 253.896 204.037 253.896 203.903 C 253.896 203.769 253.896 203.626 253.896 203.484 C 254.145 201.95 254.645 200.577 255.394 199.383 C 256.143 198.188 257.141 197.171 258.39 196.351 C 259.602 195.531 261.082 194.889 262.848 194.435 C 264.613 193.98 266.663 193.712 269.017 193.641 C 271.335 193.569 273.439 193.338 275.338 192.945 C 277.237 192.553 278.931 192 280.429 191.287 C 281.891 190.574 283.122 189.7 284.121 188.648 C 285.119 187.596 285.886 186.365 286.421 184.939 C 287.17 184.44 287.972 184.012 288.81 183.682 C 289.648 183.352 290.522 183.12 291.414 183.013 C 292.305 182.87 293.108 182.96 293.821 183.281 C 294.534 183.602 295.158 184.154 295.693 184.939 C 296.228 185.723 296.585 186.526 296.772 187.355 C 296.959 188.184 296.977 189.04 296.834 189.932 C 296.727 190.859 296.566 191.679 296.37 192.393 C 296.174 193.106 295.942 193.712 295.693 194.212 C 296.335 194.354 297.048 194.515 297.851 194.702 C 298.653 194.889 299.544 195.103 300.543 195.353 C 301.506 195.638 302.54 195.905 303.637 196.164 C 304.733 196.423 305.892 196.672 307.105 196.922 C 308.317 197.171 309.441 197.368 310.475 197.502 C 311.51 197.635 312.455 197.707 313.311 197.707 C 314.131 197.707 314.898 197.671 315.584 197.609 C 316.271 197.546 316.877 197.457 317.376 197.35 C 317.519 198.491 317.483 199.579 317.287 200.604 C 317.091 201.629 316.734 202.592 316.235 203.484 Z M 402.112 226.879 C 401.327 227.985 400.186 228.787 398.697 229.277 C 397.208 229.768 395.372 229.946 393.196 229.803 C 391.021 229.661 388.934 229.465 386.937 229.188 C 384.94 228.912 383.032 228.555 381.213 228.091 C 379.394 227.628 377.807 227.289 376.452 227.066 C 375.097 226.843 373.974 226.736 373.082 226.736 C 372.298 226.487 371.406 226.219 370.407 225.952 C 369.409 225.684 368.303 225.417 367.09 225.167 C 365.842 224.918 364.505 224.721 363.061 224.587 C 361.616 224.454 360.065 224.382 358.389 224.382 C 356.713 224.382 355.143 224.454 353.69 224.587 C 352.237 224.721 350.9 224.918 349.687 225.167 C 348.439 225.417 347.333 225.684 346.344 225.952 C 345.354 226.219 344.481 226.487 343.696 226.736 C 343.696 226.594 343.678 226.469 343.642 226.344 C 343.607 226.219 343.553 226.095 343.482 225.952 C 343.411 225.809 343.321 225.684 343.223 225.586 C 343.125 225.488 343.018 225.417 342.911 225.381 C 342.769 225.31 342.644 225.256 342.519 225.22 C 342.394 225.185 342.269 225.167 342.126 225.167 C 342.518 224.418 343.036 223.527 343.678 222.519 C 344.32 221.512 345.086 220.389 345.978 219.176 C 346.905 217.964 347.939 216.644 349.098 215.226 C 350.258 213.809 351.542 212.293 352.968 210.688 C 354.394 209.083 355.678 207.603 356.837 206.248 C 357.996 204.893 359.03 203.663 359.958 202.557 C 360.849 201.452 361.616 200.471 362.258 199.606 C 362.9 198.741 363.417 197.992 363.809 197.35 C 364.594 197.065 365.361 196.922 366.127 196.922 C 366.894 196.922 367.661 197.065 368.446 197.35 C 369.23 197.6 369.837 198.081 370.282 198.785 C 370.728 199.49 371.013 200.417 371.156 201.558 C 371.263 202.735 371.227 203.876 371.04 204.973 C 370.853 206.07 370.514 207.122 370.015 208.12 C 369.48 209.19 368.963 210.1 368.445 210.875 C 367.928 211.651 367.411 212.293 366.876 212.828 C 367.91 212.935 369.07 213.042 370.363 213.14 C 371.655 213.238 373.082 213.327 374.651 213.398 C 376.185 213.434 377.861 213.523 379.671 213.657 C 381.481 213.791 383.425 213.969 385.493 214.183 C 387.526 214.361 389.451 214.611 391.252 214.932 C 393.053 215.253 394.73 215.645 396.263 216.109 C 397.832 216.573 399.259 217.036 400.551 217.509 C 401.844 217.981 403.003 218.463 404.037 218.962 C 404.18 220.531 404.091 221.975 403.77 223.295 C 403.449 224.614 402.897 225.809 402.112 226.879 Z M 415.307 309.332 C 413.239 311.579 410.849 313.362 408.156 314.69 C 405.464 316.018 402.468 316.892 399.187 317.32 C 395.906 317.677 392.893 317.481 390.155 316.732 C 387.418 315.983 384.958 314.682 382.782 312.827 C 380.571 310.973 378.663 309.065 377.049 307.103 C 375.436 305.142 374.116 303.127 373.082 301.058 C 372.69 300.523 372.262 299.952 371.807 299.337 C 371.352 298.722 370.871 298.062 370.371 297.349 C 369.872 296.636 369.319 295.887 368.731 295.111 C 368.142 294.335 367.518 293.533 366.876 292.713 C 366.235 291.857 365.628 291.09 365.049 290.386 C 364.469 289.682 363.916 289.04 363.381 288.433 C 362.882 287.863 362.401 287.328 361.946 286.846 C 361.492 286.365 361.064 285.937 360.671 285.58 C 359.673 285.937 358.478 286.4 357.096 286.944 C 355.714 287.488 354.145 288.113 352.397 288.79 C 350.65 289.503 348.76 290.127 346.727 290.653 C 344.694 291.179 342.519 291.607 340.201 291.928 C 337.883 292.249 335.761 292.32 333.853 292.133 C 331.945 291.946 330.251 291.5 328.788 290.787 C 327.291 290.074 325.971 289.271 324.839 288.397 C 323.706 287.524 322.761 286.579 322.012 285.58 C 322.405 284.51 322.958 283.619 323.662 282.879 C 324.367 282.139 325.223 281.551 326.221 281.087 C 327.291 280.659 328.539 280.356 329.992 280.195 C 331.445 280.035 333.104 280.017 334.994 280.159 C 336.849 280.266 338.596 280.248 340.237 280.088 C 341.877 279.928 343.411 279.625 344.837 279.161 C 346.264 278.698 347.423 278.234 348.323 277.761 C 349.224 277.289 349.866 276.807 350.258 276.308 C 350.65 275.773 350.935 275.363 351.123 275.069 C 351.31 274.774 351.399 274.596 351.399 274.525 C 351.399 274.454 351.399 274.347 351.399 274.213 C 351.399 274.079 351.399 273.919 351.399 273.74 C 351.399 273.562 351.399 273.365 351.399 273.169 C 351.399 272.973 351.399 272.777 351.399 272.599 C 351.399 272.421 351.399 272.242 351.399 272.073 C 351.399 271.904 351.399 271.743 351.399 271.6 C 350.757 270.709 349.99 269.781 349.09 268.818 C 348.189 267.856 347.155 266.857 345.978 265.823 C 344.837 264.789 343.589 263.737 342.234 262.667 C 340.878 261.597 339.416 260.509 337.847 259.403 C 336.314 258.298 334.941 257.264 333.719 256.274 C 332.498 255.285 331.428 254.34 330.5 253.412 C 329.609 252.521 328.842 251.665 328.2 250.835 C 327.558 250.006 327.041 249.204 326.649 248.419 C 327.148 246.993 327.861 245.78 328.771 244.782 C 329.68 243.783 330.786 242.999 332.069 242.428 C 333.353 241.822 334.887 241.697 336.661 242.054 C 338.435 242.41 340.45 243.249 342.697 244.568 C 344.944 245.852 347.048 247.189 349.018 248.571 C 350.988 249.953 352.825 251.38 354.537 252.842 C 356.178 254.304 357.658 255.588 358.95 256.667 C 360.243 257.745 361.349 258.619 362.24 259.261 C 362.383 258.869 362.526 258.441 362.677 257.986 C 362.829 257.531 362.99 257.05 363.168 256.55 C 363.382 256.016 363.595 255.481 363.8 254.928 C 364.005 254.375 364.202 253.805 364.38 253.198 C 364.559 252.628 364.719 252.111 364.853 251.638 C 364.987 251.166 365.094 250.738 365.165 250.345 C 365.236 249.953 365.29 249.597 365.325 249.276 C 365.361 248.955 365.379 248.669 365.379 248.419 C 365.236 248.027 365.022 247.653 364.755 247.296 C 364.487 246.939 364.166 246.601 363.809 246.28 C 363.417 245.959 362.954 245.638 362.428 245.317 C 361.902 244.996 361.313 244.675 360.671 244.354 C 360.029 244.033 359.459 243.676 358.95 243.284 C 358.442 242.892 357.997 242.464 357.604 242 C 357.212 241.537 356.891 241.073 356.632 240.6 C 356.374 240.128 356.178 239.646 356.035 239.147 C 356.427 237.97 357.105 236.9 358.05 235.928 C 358.995 234.956 360.208 234.083 361.67 233.298 C 363.132 232.514 364.755 232.121 366.529 232.121 C 368.303 232.121 370.229 232.514 372.297 233.298 C 374.366 234.083 376.024 235.046 377.281 236.205 C 378.539 237.364 379.395 238.719 379.858 240.288 C 380.322 241.822 380.5 243.266 380.402 244.621 C 380.304 245.977 379.929 247.243 379.287 248.419 C 379.287 248.919 379.252 249.489 379.18 250.131 C 379.109 250.773 379.002 251.487 378.859 252.271 C 378.752 253.056 378.574 253.894 378.324 254.794 C 378.075 255.695 377.754 256.658 377.361 257.692 C 376.969 258.726 376.577 259.689 376.185 260.589 C 375.792 261.49 375.4 262.328 375.008 263.112 C 374.616 263.897 374.259 264.61 373.938 265.252 C 373.617 265.894 373.332 266.465 373.082 266.964 C 374.509 268.141 376.113 269.479 377.887 270.994 C 379.662 272.51 381.605 274.204 383.709 276.094 C 385.849 277.949 388.167 279.821 390.655 281.711 C 393.143 283.601 395.8 285.509 398.617 287.435 C 401.47 289.397 404.127 291.001 406.605 292.258 C 409.084 293.515 411.384 294.425 413.524 294.995 C 415.664 295.602 417.607 296.012 419.372 296.235 C 421.138 296.458 422.725 296.493 424.151 296.35 C 423.26 298.419 422.065 300.541 420.585 302.707 C 419.105 304.874 417.34 307.085 415.307 309.332 Z M 319.088 277.449 C 318.518 277.806 317.894 278.109 317.216 278.341 C 316.538 278.572 315.807 278.733 315.022 278.804 C 314.274 278.875 313.56 278.911 312.883 278.929 C 312.205 278.947 311.563 278.947 310.957 278.947 C 310.387 278.947 309.852 278.983 309.37 279.054 C 308.889 279.125 308.461 279.232 308.104 279.375 C 308.354 281.051 308.318 282.977 307.988 285.161 C 307.658 287.345 307.034 289.788 306.107 292.499 C 305.215 295.209 303.789 297.955 301.828 300.737 C 299.866 303.519 297.369 306.336 294.338 309.189 C 291.307 312.006 288.328 314.36 285.395 316.232 C 282.462 318.105 279.573 319.495 276.72 320.387 C 273.867 321.278 271.317 321.92 269.062 322.304 C 266.806 322.687 264.845 322.812 263.168 322.67 C 263.026 322.563 262.901 322.402 262.785 322.206 C 262.669 322.01 262.562 321.778 262.455 321.528 C 262.313 321.278 262.188 320.993 262.081 320.672 C 261.974 320.351 261.884 319.995 261.813 319.603 C 261.742 319.21 261.688 318.854 261.653 318.533 C 261.617 318.212 261.599 317.926 261.599 317.677 C 261.599 317.427 261.599 317.196 261.599 316.991 C 261.599 316.785 261.599 316.607 261.599 316.464 C 262.134 315.465 262.919 314.413 263.953 313.317 C 264.988 312.22 266.272 311.079 267.805 309.902 C 269.374 308.761 271.122 307.531 273.056 306.211 C 274.991 304.892 277.113 303.483 279.431 301.985 C 281.749 300.523 283.746 299.025 285.422 297.501 C 287.098 295.976 288.454 294.425 289.488 292.855 C 290.522 291.322 291.307 289.824 291.833 288.353 C 292.359 286.882 292.626 285.438 292.626 284.011 C 292.733 283.869 292.84 283.726 292.938 283.565 C 293.036 283.405 293.126 283.226 293.197 283.012 C 293.233 282.834 293.268 282.62 293.295 282.388 C 293.321 282.156 293.339 281.906 293.339 281.657 C 293.339 281.407 293.357 281.176 293.393 280.953 C 293.429 280.73 293.482 280.516 293.553 280.302 C 293.625 280.123 293.714 279.945 293.812 279.785 C 293.91 279.625 294.017 279.482 294.124 279.375 C 293.375 279.482 292.484 279.66 291.476 279.892 C 290.469 280.124 289.346 280.409 288.133 280.73 C 286.92 281.051 285.6 281.372 284.183 281.693 C 282.765 282.014 281.25 282.335 279.645 282.656 C 278.04 282.977 276.542 283.191 275.178 283.316 C 273.814 283.441 272.584 283.476 271.514 283.44 C 270.408 283.369 269.427 283.262 268.563 283.102 C 267.698 282.941 266.949 282.727 266.307 282.442 C 266.164 282.299 266.021 282.174 265.888 282.05 C 265.754 281.925 265.629 281.8 265.522 281.657 C 265.38 281.55 265.273 281.425 265.183 281.292 C 265.094 281.158 265.023 281.016 264.952 280.873 C 264.881 280.766 264.827 280.641 264.791 280.516 C 264.756 280.391 264.738 280.266 264.738 280.159 C 264.738 280.017 264.738 279.874 264.738 279.74 C 264.738 279.607 264.738 279.482 264.738 279.375 C 264.988 278.484 265.38 277.574 265.897 276.665 C 266.414 275.755 267.056 274.846 267.805 273.954 C 268.59 273.063 269.57 272.26 270.738 271.547 C 271.906 270.833 273.262 270.209 274.795 269.674 C 276.329 269.175 277.809 268.765 279.235 268.444 C 280.662 268.123 282.035 267.891 283.354 267.749 C 284.638 267.606 285.779 267.481 286.795 267.356 C 287.812 267.231 288.704 267.106 289.488 266.964 C 288.989 266.714 288.4 266.393 287.722 266.01 C 287.045 265.627 286.278 265.181 285.422 264.682 C 284.602 264.147 283.728 263.523 282.819 262.809 C 281.909 262.096 280.964 261.294 280.001 260.402 C 279.039 259.475 278.201 258.601 277.496 257.763 C 276.792 256.925 276.221 256.123 275.793 255.338 C 275.33 254.589 274.955 253.894 274.661 253.252 C 274.367 252.61 274.153 252.021 274.01 251.486 C 274.01 250.951 274.064 250.363 274.162 249.694 C 274.26 249.026 274.403 248.277 274.581 247.421 C 274.795 246.601 275.116 245.798 275.561 245.022 C 276.007 244.247 276.578 243.498 277.291 242.785 C 278.005 242.072 278.754 241.554 279.529 241.233 C 280.305 240.912 281.107 240.788 281.927 240.859 C 282.783 240.93 283.586 241.073 284.335 241.295 C 285.084 241.518 285.779 241.822 286.421 242.214 C 287.063 242.072 287.794 241.965 288.623 241.875 C 289.452 241.786 290.38 241.715 291.414 241.643 C 292.448 241.572 293.589 241.501 294.846 241.429 C 296.103 241.358 297.476 241.287 298.974 241.215 C 300.472 241.144 301.881 241.055 303.2 240.939 C 304.52 240.823 305.75 240.681 306.891 240.502 C 308.068 240.288 309.138 240.074 310.11 239.851 C 311.082 239.628 311.956 239.397 312.74 239.147 C 313.881 239.397 314.862 239.771 315.673 240.279 C 316.485 240.788 317.127 241.43 317.59 242.214 C 318.018 242.999 318.072 243.944 317.742 245.04 C 317.412 246.137 316.699 247.385 315.593 248.776 C 314.523 250.203 313.4 251.522 312.241 252.743 C 311.082 253.965 309.887 255.088 308.674 256.122 C 307.426 257.157 306.374 258.066 305.509 258.842 C 304.645 259.618 303.967 260.26 303.468 260.759 C 303.718 261.294 304.199 261.74 304.93 262.096 C 305.661 262.453 306.642 262.72 307.89 262.898 C 309.103 263.112 310.458 263.326 311.947 263.549 C 313.436 263.772 315.059 264.004 316.806 264.254 C 318.554 264.504 319.927 264.949 320.952 265.573 C 321.977 266.198 322.655 267 323.011 267.963 C 323.297 268.926 323.368 269.978 323.207 271.11 C 323.047 272.242 322.654 273.455 322.012 274.739 C 321.62 275.238 321.192 275.719 320.711 276.174 C 320.23 276.629 319.695 277.057 319.088 277.449 Z M 288.347 251.13 C 288.739 251.379 289.167 251.682 289.621 252.03 C 290.076 252.378 290.558 252.77 291.057 253.198 C 291.556 253.662 292.038 254.107 292.492 254.535 C 292.947 254.963 293.375 255.374 293.767 255.766 C 294.16 256.158 294.516 256.497 294.837 256.809 C 295.158 257.121 295.444 257.407 295.693 257.692 L 298.011 253.056 L 300.329 248.419 C 299.937 248.419 299.491 248.419 299.001 248.419 C 298.511 248.419 297.976 248.419 297.405 248.419 C 296.835 248.419 296.211 248.437 295.533 248.473 C 294.855 248.509 294.124 248.562 293.339 248.633 C 292.591 248.669 291.877 248.741 291.2 248.83 C 290.522 248.919 289.88 249.026 289.274 249.133 C 288.704 249.276 288.186 249.418 287.714 249.561 C 287.241 249.703 286.813 249.846 286.421 249.988 C 286.671 250.095 286.956 250.238 287.277 250.425 C 287.598 250.613 287.955 250.845 288.347 251.13 Z" class="fil0" id="76758584-7" style="fill-opacity: 1; stroke: none; stroke-width: 0.071; fill: rgb(12, 61, 10);"/>
    <g id="¹Ï¼h 1-1" transform="matrix(0.071326, 0, 0, 0.071326, 535.590088, 164.94278)" style="fill:#2c5aa0;fill-opacity:1;stroke:none">
      <path d="M 1266 552 C 1200 548 1120 542 1024 533 C 928 524 818 512 693 498 C 568 483 460 471 368 462 C 275 453 199 447 137 443 C 148 404 142 361 118 316 C 95 271 51 244 -12 237 C -76 230 -124 247 -158 289 C -193 330 -210 374 -210 422 C -221 436 -237 448 -259 457 C -281 466 -309 469 -346 468 C -382 466 -414 464 -444 462 C -472 460 -496 461 -514 465 C -550 479 -603 488 -674 489 C -745 491 -826 498 -918 508 C -1010 519 -1079 547 -1124 592 C -1170 638 -1197 689 -1208 747 C -1208 754 -1207 763 -1203 774 C -1199 785 -1192 798 -1181 812 C -1170 827 -1159 839 -1149 850 C -1138 861 -1129 870 -1121 877 C -1118 877 -1113 876 -1108 874 C -1102 873 -1096 870 -1089 866 C -1082 863 -1076 860 -1070 858 C -1064 856 -1060 855 -1057 855 C -1009 834 -951 812 -883 791 C -814 769 -735 752 -647 739 C -558 726 -482 718 -416 715 C -351 711 -297 707 -253 704 C -271 733 -301 760 -340 788 C -380 815 -426 841 -479 866 C -531 892 -568 918 -590 945 C -612 972 -622 1000 -622 1029 C -622 1033 -622 1037 -622 1043 C -622 1048 -621 1054 -620 1062 C -618 1069 -615 1075 -612 1081 C -608 1086 -604 1091 -601 1094 C -572 1112 -534 1123 -487 1124 C -440 1126 -383 1116 -316 1094 C -249 1073 -190 1055 -139 1043 C -89 1030 -47 1026 -15 1029 C 11 1022 42 1019 80 1021 C 118 1023 163 1032 216 1048 C 268 1065 315 1079 357 1091 C 399 1104 434 1112 463 1116 C 502 1098 528 1073 539 1040 C 549 1008 532 967 487 918 C 442 869 398 827 354 791 C 311 754 282 725 268 704 C 296 704 331 705 373 709 C 415 713 462 721 514 734 C 567 746 612 760 650 774 C 688 789 719 801 745 812 C 774 834 816 850 872 861 C 928 872 992 861 1062 829 C 1133 796 1183 753 1214 698 C 1245 644 1262 595 1266 552 Z M -15 725 C -7 729 1 735 12 744 C 23 754 36 766 50 782 C 65 798 77 813 88 826 C 99 838 108 848 116 855 C 101 855 83 855 61 855 C 39 855 15 855 -12 855 C -39 855 -62 855 -80 855 C -98 855 -113 855 -123 855 L -15 725 Z M -362 2006 C -329 1984 -287 1964 -234 1946 C -182 1928 -120 1917 -47 1914 C 25 1910 87 1910 140 1914 C 193 1917 235 1919 268 1919 C 271 1937 274 1960 275 1987 C 277 2014 281 2045 287 2079 C 292 2113 301 2142 313 2166 C 326 2189 340 2208 354 2223 C 394 2234 434 2230 474 2212 C 513 2194 541 2153 558 2090 C 574 2027 579 1970 571 1919 C 564 1868 557 1832 549 1810 C 542 1774 538 1729 536 1675 C 534 1621 536 1557 541 1485 C 547 1413 550 1349 552 1295 C 554 1241 553 1196 549 1160 C 524 1156 492 1153 452 1151 C 412 1149 365 1148 311 1148 C 256 1148 210 1148 170 1146 C 130 1144 97 1141 72 1138 C 43 1148 0 1154 -56 1154 C -112 1154 -176 1158 -248 1165 C -320 1172 -374 1194 -408 1230 C -443 1266 -463 1308 -470 1355 L -449 1529 C -449 1543 -450 1561 -451 1583 C -453 1604 -457 1629 -463 1659 C -468 1687 -473 1713 -479 1735 C -484 1756 -488 1774 -492 1789 C -496 1799 -501 1820 -508 1851 C -516 1882 -530 1918 -552 1960 C -574 2001 -599 2029 -628 2041 C -657 2054 -684 2056 -709 2049 C -709 2053 -710 2058 -712 2066 C -714 2073 -716 2082 -720 2092 C -724 2104 -726 2112 -728 2120 C -730 2127 -731 2132 -731 2136 C -720 2168 -699 2194 -669 2212 C -638 2230 -597 2226 -546 2201 C -496 2176 -455 2143 -425 2104 C -394 2064 -373 2031 -362 2006 Z M -297 1420 C -268 1398 -231 1380 -186 1366 C -140 1351 -86 1345 -23 1347 C 40 1348 96 1351 145 1355 C 194 1358 235 1358 268 1355 L 268 1420 L 246 1441 C 217 1441 180 1441 137 1441 C 94 1441 43 1443 -15 1447 C -73 1451 -123 1456 -167 1463 C -210 1471 -246 1478 -275 1485 C -275 1481 -275 1477 -275 1472 C -275 1466 -276 1460 -278 1452 C -280 1445 -282 1439 -286 1433 C -289 1428 -293 1423 -297 1420 Z M -297 1702 C -271 1673 -236 1649 -191 1631 C -146 1613 -90 1606 -23 1610 C 44 1613 102 1617 151 1621 C 199 1624 238 1623 268 1615 C 268 1619 268 1624 268 1631 C 268 1639 268 1648 268 1659 C 268 1669 268 1679 268 1685 C 268 1693 268 1698 268 1702 C 238 1713 201 1723 156 1732 C 111 1741 57 1747 -7 1751 C -70 1754 -126 1757 -175 1759 C -224 1761 -264 1763 -297 1767 C -297 1763 -297 1759 -297 1754 C -297 1748 -297 1741 -297 1735 C -297 1727 -297 1721 -297 1716 C -297 1710 -297 1705 -297 1702 Z" class="fil0" id="path-1" style="fill-opacity: 1; stroke: none; fill: rgb(12, 61, 10);"/>
    </g>
    <g id="group-1" transform="matrix(0.071326, 0, 0, 0.071326, 446.31781, 170.790405)" style="fill:#2c5aa0;fill-opacity:1;stroke:none">
      <path d="M 3284 204 C 3338 216 3405 227 3485 240 C 3564 253 3656 259 3762 259 C 3866 259 3958 251 4038 235 C 4118 218 4185 201 4239 183 C 4231 161 4217 141 4195 123 C 4174 105 4142 91 4100 83 C 4059 73 4022 65 3989 58 C 3956 51 3931 42 3913 31 C 3880 27 3835 20 3775 9 C 3715 -2 3646 -3 3566 4 C 3487 11 3424 35 3379 74 C 3334 114 3302 158 3284 204 Z M 5150 769 C 5168 743 5191 712 5218 674 C 5245 636 5278 591 5316 541 C 5354 490 5388 446 5419 408 C 5449 370 5476 338 5498 313 C 5498 306 5498 297 5498 286 C 5498 275 5496 263 5492 251 C 5488 238 5483 228 5476 221 C 5468 214 5461 208 5454 204 C 5411 216 5355 221 5288 221 C 5222 221 5142 215 5050 202 C 4957 189 4876 181 4805 178 C 4735 174 4676 176 4630 183 C 4564 179 4505 196 4450 232 C 4396 268 4362 334 4350 430 C 4337 526 4335 611 4342 687 C 4349 763 4351 819 4347 855 C 4347 910 4348 979 4350 1062 C 4352 1145 4355 1243 4358 1357 C 4362 1472 4364 1572 4366 1659 C 4368 1745 4369 1818 4369 1876 C 4373 1897 4374 1937 4372 1995 C 4370 2053 4376 2116 4391 2185 C 4405 2254 4433 2291 4475 2299 C 4516 2306 4561 2295 4608 2266 C 4630 2234 4647 2192 4659 2141 C 4672 2091 4676 2031 4673 1962 C 4669 1894 4667 1834 4665 1783 C 4663 1733 4666 1691 4673 1659 C 4687 1659 4705 1659 4727 1659 C 4749 1659 4775 1659 4805 1659 C 4837 1659 4864 1659 4890 1659 C 4915 1659 4937 1659 4955 1659 C 4995 1659 5043 1647 5101 1623 C 5159 1600 5214 1555 5267 1491 C 5319 1425 5351 1363 5362 1303 C 5373 1243 5374 1196 5367 1160 C 5367 1138 5362 1110 5354 1075 C 5344 1041 5326 1001 5299 956 C 5272 911 5245 873 5218 842 C 5191 811 5168 787 5150 769 Z M 4043 834 L 4087 639 C 4101 642 4124 643 4155 641 C 4186 640 4218 628 4252 606 C 4287 584 4306 558 4312 527 C 4318 497 4315 468 4304 443 C 4268 429 4223 417 4168 408 C 4114 399 4051 395 3978 397 C 3906 399 3843 401 3788 403 C 3734 404 3689 404 3653 400 C 3624 407 3580 410 3520 410 C 3460 410 3391 416 3311 427 C 3231 438 3173 461 3135 498 C 3097 534 3074 573 3067 617 C 3085 631 3108 645 3137 658 C 3166 670 3201 679 3241 682 C 3280 685 3315 686 3343 685 C 3373 683 3396 682 3414 682 L 3414 877 C 3385 888 3346 898 3298 907 C 3249 916 3192 930 3126 948 C 3062 966 3008 990 2967 1021 C 2925 1052 2893 1084 2872 1116 C 2872 1123 2876 1134 2885 1148 C 2894 1163 2910 1179 2931 1198 C 2953 1216 2972 1228 2988 1235 C 3005 1242 3016 1246 3024 1246 C 3092 1239 3178 1224 3281 1203 C 3384 1181 3505 1157 3642 1129 C 3780 1103 3899 1087 4003 1084 C 4106 1080 4192 1084 4261 1094 C 4264 1091 4268 1086 4274 1081 C 4280 1075 4285 1069 4290 1062 C 4296 1054 4299 1048 4301 1043 C 4303 1037 4304 1033 4304 1029 C 4318 997 4324 964 4320 931 C 4317 899 4295 874 4255 858 C 4215 842 4175 834 4136 834 C 4096 834 4065 834 4043 834 Z M 4694 487 C 4712 472 4737 460 4768 449 C 4799 438 4837 432 4881 432 C 4927 432 4967 434 5001 438 C 5035 441 5063 443 5085 443 C 5071 468 5049 501 5020 541 C 4991 581 4957 628 4917 682 C 4877 736 4846 783 4824 823 C 4803 863 4788 895 4781 921 C 4785 924 4788 928 4792 931 C 4796 935 4799 938 4803 940 C 4806 941 4810 942 4814 942 C 4818 942 4821 942 4824 942 C 4843 931 4870 923 4906 918 C 4942 912 4983 919 5028 937 C 5073 955 5105 979 5123 1010 C 5141 1041 5150 1069 5150 1094 C 5157 1138 5150 1187 5129 1243 C 5107 1299 5061 1352 4990 1401 C 4919 1450 4854 1482 4792 1498 C 4730 1515 4684 1525 4651 1529 C 4651 1471 4651 1398 4651 1311 C 4651 1224 4653 1123 4656 1008 C 4660 892 4666 791 4673 704 C 4680 617 4687 545 4694 487 Z M 3566 660 C 3584 660 3607 660 3634 658 C 3661 656 3693 653 3729 649 C 3765 646 3797 643 3824 641 C 3851 640 3874 639 3892 639 L 3870 834 L 3566 834 L 3566 660 Z M 3175 1919 L 3197 1941 C 3215 1952 3239 1954 3268 1949 C 3297 1943 3332 1927 3374 1900 C 3415 1873 3452 1851 3485 1835 C 3517 1819 3544 1810 3566 1810 C 3591 1799 3632 1794 3688 1794 C 3744 1794 3808 1790 3880 1780 C 3953 1772 4003 1747 4030 1707 C 4057 1667 4069 1623 4065 1572 C 4062 1550 4063 1524 4070 1493 C 4078 1462 4090 1427 4109 1387 C 4127 1348 4139 1312 4147 1281 C 4154 1251 4155 1224 4152 1203 C 4123 1214 4087 1223 4043 1233 C 4000 1241 3949 1249 3892 1254 C 3834 1260 3783 1265 3740 1271 C 3696 1276 3660 1282 3631 1290 C 3609 1300 3580 1307 3542 1309 C 3504 1310 3458 1310 3406 1309 C 3354 1307 3310 1312 3276 1325 C 3241 1337 3215 1355 3197 1376 C 3208 1391 3221 1409 3238 1431 C 3254 1452 3270 1477 3287 1504 C 3303 1531 3314 1554 3319 1572 C 3324 1590 3327 1604 3327 1615 C 3331 1633 3329 1655 3322 1680 C 3315 1705 3299 1735 3276 1767 C 3252 1799 3231 1829 3213 1854 C 3195 1879 3183 1901 3175 1919 Z M 3457 1680 C 3454 1637 3463 1593 3485 1550 C 3506 1507 3549 1474 3612 1452 C 3675 1431 3734 1420 3788 1420 C 3843 1420 3884 1420 3913 1420 C 3913 1427 3913 1437 3913 1450 C 3913 1462 3912 1479 3911 1498 C 3909 1518 3906 1536 3902 1553 C 3899 1569 3895 1583 3892 1593 C 3866 1604 3835 1615 3797 1626 C 3759 1637 3714 1647 3664 1656 C 3613 1665 3568 1673 3530 1680 C 3493 1687 3461 1695 3436 1702 C 3439 1702 3443 1701 3447 1699 C 3450 1698 3453 1695 3455 1691 C 3456 1687 3457 1685 3457 1683 C 3457 1681 3457 1680 3457 1680 Z" class="fil0" id="path-2" style="fill-opacity: 1; stroke: none; fill: rgb(12, 61, 10);"/>
    </g>
  </g>
</svg>